<svg id="Layer_1" data-name="Layer 1" xmlns="http://www.w3.org/2000/svg" viewBox="0 0 315.66 289.89"><defs><style>.cls-1,.cls-3{fill:#fcd392;}.cls-1{stroke:#b98846;}.cls-1,.cls-13{stroke-miterlimit:10;stroke-width:3px;}.cls-2{fill:#b98846;}.cls-4{fill:#ce8730;}.cls-13,.cls-5{fill:#f78f1e;}.cls-6{fill:#ae5226;}.cls-7{fill:#231f20;}.cls-8{fill:#fffeff;}.cls-9{fill:#c13f6d;}.cls-10{fill:#101115;}.cls-11{fill:#fff;}.cls-12{fill:#ed8cb3;}.cls-13{stroke:#ae5226;}.cls-14{fill:#6652a2;}.cls-15{fill:#dc3b26;}</style></defs><title>angry</title><path class="cls-1" d="M182.32,217.84l22.5,38.09s-19.42,9-31.51,31.35-15.7,48.93-15.7,48.93-44.75-19.63-46.87-29.8-6.83-32-6.83-32,13.58-6.87,33.89-27.84,26-65.77,26-65.77Z" transform="translate(-27.56 -48.49)"/><path class="cls-2" d="M182.32,217.84l-18.55-37s-5.34,42.27-24.27,63.91c17.16,7.84,27.48,23,27.67,42.22.18,17.33-7.17,33.78-20.27,44.3,6.2,3,10.7,5,10.7,5s3.6-26.6,15.7-48.93,31.51-31.35,31.51-31.35Z" transform="translate(-27.56 -48.49)"/><path class="cls-3" d="M149.56,108.85s20-31.61,58.36-29.58,89.94,13.78,83.4,72.66,6.51,66.43,3.23,79.83-25.74,56.9-42.33,55.18S174,259.47,167.53,243.71s-25.76-58.2-25.76-58.2-12.56-30.86-8.85-51.88S149.56,108.85,149.56,108.85Z" transform="translate(-27.56 -48.49)"/><path class="cls-2" d="M149.56,108.85a48.91,48.91,0,0,1,4-5.34,73.59,73.59,0,0,1,13.83-12.79,63.22,63.22,0,0,1,35.73-12.15c1.52-.09,3.05,0,4.61,0s3.11.14,4.7.25a177.26,177.26,0,0,1,19.91,2.35,119.56,119.56,0,0,1,21.1,5.64A88.53,88.53,0,0,1,264,91.63a66,66,0,0,1,9.92,6.7,50.84,50.84,0,0,1,8.55,8.91,48.41,48.41,0,0,1,6.3,11,62.59,62.59,0,0,1,4.4,25.57c0,1.1,0,2.21-.1,3.32l-.27,3.32c-.16,2.19-.4,4.38-.6,6.58s-.45,4.41-.59,6.61l-.41,6.63a192.19,192.19,0,0,0,.37,26.91,118.78,118.78,0,0,0,2,13.44c.86,4.48,2.15,8.86,2.83,13.65a22.82,22.82,0,0,1-.29,7.38l-.09.49-.11.42-.22.84-.54,1.74c-.38,1.13-.78,2.24-1.2,3.34A147.3,147.3,0,0,1,273,274.92a54.23,54.23,0,0,1-10.16,9.89,20.62,20.62,0,0,1-6.64,3.19,12.39,12.39,0,0,1-3.86.34H252l-.21,0-.42-.06-.85-.12c-.58-.09-1.18-.22-1.76-.33A118.81,118.81,0,0,1,235.48,284c-4.31-1.47-8.55-3.06-12.73-4.72q-12.52-5-24.24-11-5.84-3-11.41-6.25A110.39,110.39,0,0,1,176.41,255c-3.36-2.59-6.64-5.35-9-9.06-.28-.48-.52-1-.77-1.5s-.4-.95-.61-1.43l-1.16-2.81-2.34-5.53c-6.27-14.65-12.38-28.43-18-41.14l-2.1-4.72-1-2.32-.26-.58c-.11-.26-.16-.41-.25-.62l-.45-1.19c-1.16-3.14-2.18-6.25-3.1-9.3a149.93,149.93,0,0,1-4.13-17.6,87.71,87.71,0,0,1-1.32-15.85A47.92,47.92,0,0,1,134,128.05a37.24,37.24,0,0,1,4.53-9.88,26.69,26.69,0,0,1,5.33-6,21,21,0,0,1,4.17-2.7A10.8,10.8,0,0,1,149.56,108.85Zm0,0a10.79,10.79,0,0,0-1.56.68,20.92,20.92,0,0,0-4.08,2.78,26.43,26.43,0,0,0-5.14,6.06,38,38,0,0,0-4.26,9.84,47.22,47.22,0,0,0-1.84,13.18A86.76,86.76,0,0,0,134.26,157a148.66,148.66,0,0,0,4.42,17.37c1,3,2,6.07,3.19,9.17l.45,1.15.22.55.26.57,1.06,2.31,2.15,4.69c5.79,12.66,12.06,26.37,18.5,41l2.41,5.53,1.19,2.8c.2.45.39,1,.61,1.37s.4.82.65,1.22c2.08,3.18,5.24,5.86,8.53,8.31a156.92,156.92,0,0,0,21.8,13c7.73,3.89,15.78,7.48,24.06,10.77,4.14,1.64,8.35,3.2,12.61,4.63A116.55,116.55,0,0,0,249.3,285c.54.1,1.05.21,1.61.29l.85.11.42.06.21,0h.14a9.59,9.59,0,0,0,2.95-.28,17.86,17.86,0,0,0,5.68-2.78,51.53,51.53,0,0,0,9.55-9.39,152,152,0,0,0,20.42-35.67c.41-1.06.8-2.13,1.16-3.2l.5-1.57.23-.84.11-.42.06-.36a19.89,19.89,0,0,0,.27-6.41c-.6-4.38-1.88-8.88-2.75-13.43a121.62,121.62,0,0,1-2-13.75,194.86,194.86,0,0,1-.28-27.32l.44-6.72c.15-2.23.41-4.42.61-6.63s.45-4.39.62-6.57l.27-3.22c.09-1.07.07-2.15.11-3.22a61.43,61.43,0,0,0-4.07-24.59,46,46,0,0,0-5.89-10.55,48.59,48.59,0,0,0-8.1-8.62A63.86,63.86,0,0,0,263,93.42a86.56,86.56,0,0,0-10.21-4.81A117.79,117.79,0,0,0,232,82.84a185.4,185.4,0,0,0-19.7-2.57c-3.16-.26-6.22-.47-9.19-.43a62.24,62.24,0,0,0-35.42,11.35,75.59,75.59,0,0,0-14,12.42A48.88,48.88,0,0,0,149.56,108.85Z" transform="translate(-27.56 -48.49)"/><path class="cls-4" d="M269.72,185c-6.42-3.31-11.8-8.09-19.06-9.6-6.54-1.36-13.24-.33-19.57,1.54-17.83,5.25-35.87,15.91-43.31,32.86q6.23.84,12.47,1.72c17.53,2.45,35.33,4.54,53,3.09a112.5,112.5,0,0,0,26.91-5.3,52.14,52.14,0,0,0,10.48-4.83c-.5-3.8-.9-8.18-1.1-13.3-1.83-.38-3.59-.61-4.7-.85A61,61,0,0,1,269.72,185Z" transform="translate(-27.56 -48.49)"/><path class="cls-5" d="M160.58,224l-4.83-80.32s22.67-18.67,36-18,45.33,8,45.33,8l-23.41-15.33,94.41,26-18.15-18.74,51.15,14.07s-12-39.33-27.33-48.67-58.67-28.67-58.67-28.67l16.67-4.67s-22-13.33-55.33-5.33-65.33,33.33-65.33,33.33l6.67-22-25.5,30.67s-18.5,26-17.83,38.67S160.58,224,160.58,224Z" transform="translate(-27.56 -48.49)"/><path class="cls-6" d="M160.58,224l-2.77-40.14-2.71-40.14,0-.33.26-.21c2.83-2.31,5.75-4.48,8.75-6.55s6.07-4,9.27-5.8a61.31,61.31,0,0,1,10-4.55A28.5,28.5,0,0,1,188.8,125a18.9,18.9,0,0,1,2.85-.14l2.74.18c1.83.18,3.66.38,5.45.63s3.6.52,5.4.79c3.59.57,7.16,1.21,10.73,1.87q10.7,2,21.33,4.38l-.78,1.83-23.47-15.25-6-3.87,6.87,1.87,47.25,12.84,47.22,12.94-1.31,2.22L288.94,126.6,285.45,123l4.84,1.32,51.17,14-1.75,1.8c-.75-2.38-1.58-4.78-2.43-7.15s-1.76-4.73-2.71-7.07c-1.89-4.68-3.95-9.29-6.25-13.75a83.08,83.08,0,0,0-7.89-12.7,35.56,35.56,0,0,0-5-5.33,20,20,0,0,0-2.9-2.05c-1.1-.63-2.19-1.3-3.29-1.91l-3.3-1.81-3.36-1.77c-2.25-1.16-4.5-2.32-6.77-3.45-4.53-2.28-9.1-4.48-13.68-6.67q-13.75-6.54-27.64-12.8l-3.57-1.61,3.77-1,16.67-4.65L271,58.91a49.41,49.41,0,0,0-7.19-3.24,72.32,72.32,0,0,0-7.66-2.31,78.75,78.75,0,0,0-15.88-2.13,85.28,85.28,0,0,0-16,1c-2.65.38-5.3.95-7.88,1.55s-5.21,1.35-7.78,2.2A168.21,168.21,0,0,0,179,69q-7.1,3.94-13.93,8.33-3.41,2.2-6.75,4.52c-2.22,1.54-4.43,3.13-6.54,4.76l-2.92,2.25L150,85.38l6.75-22,1.87,1L133,95l0-.06c-1.73,2.44-3.39,5-5,7.52s-3.16,5.14-4.62,7.77-2.85,5.3-4.1,8a58.35,58.35,0,0,0-3.17,8.37,26.79,26.79,0,0,0-.85,4.32,16.26,16.26,0,0,0-.07,2.12l.05.57.09.5c.06.33.15.7.23,1.05a67.65,67.65,0,0,0,3,8.44c2.33,5.56,4.95,11,7.62,16.45,5.37,10.85,11,21.55,16.8,32.2S154.61,213.5,160.58,224Zm0,0q-9.24-15.65-18.14-31.49c-5.92-10.57-11.74-21.2-17.27-32-2.76-5.4-5.45-10.83-7.89-16.41a65.53,65.53,0,0,1-3.2-8.61c-.09-.39-.19-.75-.26-1.16l-.11-.62-.06-.56a17.09,17.09,0,0,1,.05-2.41,28.33,28.33,0,0,1,.86-4.59,59.92,59.92,0,0,1,3.2-8.63c1.25-2.79,2.64-5.51,4.1-8.18s3-5.29,4.61-7.88,3.26-5.13,5-7.65l0,0,0,0L156.91,63l3.4-4.12L158.78,64l-6.58,22-1.84-1.25c2.18-1.71,4.38-3.31,6.62-4.89s4.5-3.12,6.78-4.61q6.86-4.5,14-8.5a170.76,170.76,0,0,1,30-13.34c2.6-.86,5.31-1.6,7.92-2.26s5.39-1.22,8.13-1.62a88,88,0,0,1,16.52-1,81.48,81.48,0,0,1,16.43,2.17,75.07,75.07,0,0,1,8,2.38,51.53,51.53,0,0,1,7.69,3.45l2.88,1.63-3.22.91-16.66,4.69.2-2.66q13.94,6.23,27.74,12.76c4.6,2.19,9.19,4.38,13.75,6.66,2.29,1.12,4.55,2.29,6.82,3.45l3.39,1.78,3.39,1.85c1.13.62,2.2,1.27,3.31,1.91a22.35,22.35,0,0,1,3.32,2.35,38.48,38.48,0,0,1,5.41,5.79,85.92,85.92,0,0,1,8.15,13.19c2.35,4.58,4.42,9.26,6.33,14q1.43,3.56,2.73,7.17c.87,2.41,1.69,4.82,2.46,7.29l.78,2.5-2.53-.7L289.56,127l1.35-2.27L309,143.46l3.4,3.52-4.72-1.31-47.19-13.06-47.16-13.16.91-2,23.35,15.42,4.67,3.08-5.45-1.25q-10.57-2.43-21.23-4.53c-3.55-.68-7.11-1.35-10.67-1.94-1.78-.29-3.56-.58-5.35-.82s-3.56-.47-5.34-.65l-2.68-.2a17.27,17.27,0,0,0-2.58.11,26.89,26.89,0,0,0-5.13,1.19,59.79,59.79,0,0,0-9.78,4.36c-3.16,1.72-6.22,3.62-9.21,5.63s-5.92,4.14-8.73,6.37l.23-.54,2.12,40.18Z" transform="translate(-27.56 -48.49)"/><path class="cls-3" d="M163.11,204.15s1.41-11.66-9.63-14.42,0,24.57,0,24.57l9.63,8.67" transform="translate(-27.56 -48.49)"/><path class="cls-7" d="M163.11,204.15a18.3,18.3,0,0,0-1.18-5.74c-.16-.45-.39-.87-.58-1.3l-.7-1.22c-.28-.37-.55-.75-.83-1.11s-.63-.67-1-1l-1.05-.86-1.16-.7a13,13,0,0,0-2.53-1l-.66-.19-.16,0-.08,0h-.05l.08,0h0l-.37-.06-.37-.06a.77.77,0,0,0-.3,0c-.15,0-.29,0-.43,0a1.49,1.49,0,0,0-1.21,1,6,6,0,0,0-.48,2.3,18.05,18.05,0,0,0,.13,2.75c.11.93.23,1.88.41,2.83s.37,1.9.6,2.84c.47,1.89.94,3.8,1.51,5.68s1.12,3.79,1.76,5.63l-.28-.39c.78.75,1.52,1.54,2.28,2.31s1.51,1.54,2.25,2.34c1.49,1.57,3,3.17,4.38,4.81-1.79-1.24-3.53-2.53-5.24-3.85-.87-.65-1.71-1.32-2.56-2s-1.71-1.33-2.53-2l-.16-.13-.11-.26c-.82-1.86-1.61-3.7-2.28-5.61s-1.33-3.82-1.82-5.79c-.26-1-.49-2-.69-3a29.86,29.86,0,0,1-.48-3.08,20.92,20.92,0,0,1-.08-3.22,8.66,8.66,0,0,1,.86-3.47,4.4,4.4,0,0,1,1.41-1.61,5.06,5.06,0,0,1,1-.5,7.7,7.7,0,0,1,1-.21,8.38,8.38,0,0,1,1.06,0,2,2,0,0,1,.44.06l.37.08.37.08h0l.11,0h0l0,0,.1,0,.19.07.77.27a7.69,7.69,0,0,1,1.49.63c.48.27,1,.49,1.42.8l1.32,1,1.16,1.15c.34.42.66.87,1,1.3s.53.93.79,1.4.43,1,.6,1.47.31,1,.4,1.52A14.86,14.86,0,0,1,163.11,204.15Z" transform="translate(-27.56 -48.49)"/><path class="cls-8" d="M218.69,175.8c-10.2-4.94-33.43-7.31-33.43-7.31-2.85,16.35,1.88,33,13.86,42.1a23.9,23.9,0,0,1,8.56-.05c3.11.59,6,2.24,9.15,2.6a5.17,5.17,0,0,1,3,1.37c11.66-4.88,20.37-19.77,20.37-19.77S228.88,180.74,218.69,175.8Z" transform="translate(-27.56 -48.49)"/><path class="cls-8" d="M285.94,210c4.16-9.18,5.79-25.52,4.77-41.53,0,0-8.44,2.37-12.15,7.31s-7.83,18.94-7.83,18.94,2.59,12.17,6.22,18.11A15.67,15.67,0,0,1,285.94,210Z" transform="translate(-27.56 -48.49)"/><path class="cls-9" d="M286.88,227.2s-4.68,8.91-22.08,7.8-38.06-22.84-47.85-12.81-2.18,54,6,59.6S249,267.31,258.82,269s19.58,13.79,19.58,13.79" transform="translate(-27.56 -48.49)"/><path class="cls-7" d="M286.88,227.2a9.07,9.07,0,0,1-1.33,1.85,16.5,16.5,0,0,1-5.18,3.86,27.8,27.8,0,0,1-9.74,2.63c-1,.05-2,.15-3,.18s-2.09,0-3.23,0a25.65,25.65,0,0,1-3.38-.42c-1.15-.22-2.3-.5-3.47-.84a86.63,86.63,0,0,1-14.26-6c-2.44-1.22-4.92-2.49-7.48-3.7a51.32,51.32,0,0,0-7.92-3.11c-2.7-.77-5.59-1-7.87.12l-.43.21-.39.27-.4.27-.36.33-.36.33,0,0s-.1.1,0,0l-.09.11-.18.22a7.93,7.93,0,0,0-.68.88c-.16.27-.32.53-.49.8l-.45.94a18.65,18.65,0,0,0-.77,2,38.88,38.88,0,0,0-1.44,8.91,76.78,76.78,0,0,0,.07,9.3,108.06,108.06,0,0,0,2.73,18.41,73.62,73.62,0,0,0,2.61,8.69,35.52,35.52,0,0,0,1.78,4,11.22,11.22,0,0,0,2.35,3.14c1.73,1.52,4.59,1,7.09.08a48.62,48.62,0,0,0,7.31-3.61c4.67-2.7,9-5.54,13.55-7.41a14.51,14.51,0,0,1,7-1.36l.44.06a3.68,3.68,0,0,1,.44.1l.77.2.76.2.76.29a23.53,23.53,0,0,1,2.82,1.26,41.12,41.12,0,0,1,8.11,6A55.72,55.72,0,0,1,277,281c1,1.13,1.44,1.77,1.44,1.77s-.52-.6-1.56-1.66-2.61-2.57-4.71-4.35a40.33,40.33,0,0,0-8.22-5.44,22.59,22.59,0,0,0-2.69-1l-.7-.23-.77-.16-.78-.16a2.39,2.39,0,0,0-.35-.06l-.36,0a13.36,13.36,0,0,0-6.18,1.5c-4.21,1.94-8.41,4.9-13.08,7.76a50.71,50.71,0,0,1-7.58,4,15.09,15.09,0,0,1-4.57,1.12,8.62,8.62,0,0,1-2.58-.22,9.06,9.06,0,0,1-1.34-.51l-.49-.27-.12-.07-.16-.1-.07-.05-.27-.21a13.55,13.55,0,0,1-3.1-3.91,38.17,38.17,0,0,1-2-4.29,66.58,66.58,0,0,1-2.82-9A110.41,110.41,0,0,1,211,246.47a79.72,79.72,0,0,1,0-9.66,41.65,41.65,0,0,1,1.63-9.61,21.49,21.49,0,0,1,.9-2.34l.56-1.15c.24-.39.49-.78.75-1.17a9.71,9.71,0,0,1,.75-.94l.19-.22.09-.11a.91.91,0,0,1,.13-.13l.06-.06.5-.44.5-.43.56-.37.56-.36c.2-.11.4-.19.6-.29a10.91,10.91,0,0,1,5.06-1,18.66,18.66,0,0,1,4.74.83,49.73,49.73,0,0,1,8.28,3.43c2.58,1.3,5,2.65,7.43,3.93A93.29,93.29,0,0,0,258,232.78c1.1.37,2.2.68,3.28.93a28.37,28.37,0,0,0,3.2.54c1,.11,2.09.13,3.09.2s2,0,2.94,0a27,27,0,0,0,9.57-2.05,17.17,17.17,0,0,0,5.31-3.44A9,9,0,0,0,286.88,227.2Z" transform="translate(-27.56 -48.49)"/><path class="cls-10" d="M184.56,181.15l2.76-10,32.75,7,19.42,17.77s-7.92-15.77-16.92-20.77-41.75-12.75-41.75-12.75l3.63,16.76" transform="translate(-27.56 -48.49)"/><path class="cls-10" d="M191.29,202.18l3,6.21s11.17,0,15.83,1,11,4.51,11,4.51l5.78-3.75-4.91,5.9s-8.88-3.16-12.94-4.16-15.88.75-15.88.75Z" transform="translate(-27.56 -48.49)"/><path class="cls-10" d="M232.52,189.53s.3,9.36-3.2,8.86-4-8.86-4-8.86.82,5.62,2.41,2.74,0-7.12,0-7.12Z" transform="translate(-27.56 -48.49)"/><path class="cls-10" d="M276.07,190s.15,9.36-1.62,8.86-2-8.86-2-8.86.41,5.62,1.22,2.74,0-7.12,0-7.12Z" transform="translate(-27.56 -48.49)"/><path class="cls-11" d="M214.63,225.86l6.44,10,9.25-6.25s17.25,11.25,28.5,12,26-5,26-5l2.05-8s-19.05,6.75-27.05,4-22.93-11.44-32.09-12.47S214.63,225.86,214.63,225.86Z" transform="translate(-27.56 -48.49)"/><path class="cls-7" d="M214.63,225.86l3.43,4.88,3.38,4.91-.62-.13c3-2.18,6-4.38,9.06-6.54l.41-.29.47.28a127.37,127.37,0,0,0,12.68,6.66c1.09.49,2.18,1,3.28,1.4s2.21.84,3.32,1.26,2.24.74,3.37,1,2.26.53,3.39.76l1.69.19.42,0h.41l.9,0a17.4,17.4,0,0,0,1.75,0c.57,0,1.13,0,1.72-.1,1.16-.09,2.33-.24,3.49-.41s2.32-.38,3.48-.62,2.31-.5,3.46-.78,2.29-.6,3.43-.92,2.27-.68,3.4-1.06,2.26-.77,3.33-1.18l-.9,1,2.06-8,1.93,1.76c-1.57.54-3.11,1-4.68,1.47s-3.14.88-4.73,1.26-3.18.75-4.8,1-3.25.52-4.9.67a34.78,34.78,0,0,1-5,.11l-1.29-.16a6.67,6.67,0,0,1-1.3-.24c-.44-.12-.86-.22-1.32-.36l-1.13-.43c-1.54-.6-3-1.29-4.5-2l-4.37-2.09L245,227.24c-1.45-.69-2.89-1.39-4.35-2s-2.92-1.31-4.4-1.89-3-1.13-4.48-1.61c-.75-.26-1.52-.42-2.28-.64a22.41,22.41,0,0,0-2.3-.39c-.4,0-.81-.09-1.2-.11h-1.15a13.6,13.6,0,0,0-2.32.29,13.19,13.19,0,0,0-4.35,1.78A12.39,12.39,0,0,0,214.63,225.86Zm0,0a12.6,12.6,0,0,1,3.26-3.58,13.35,13.35,0,0,1,4.41-2.16,14.41,14.41,0,0,1,2.44-.47l1.26-.08c.41,0,.81,0,1.21,0a23.34,23.34,0,0,1,2.48.26c.8.17,1.62.29,2.41.51a47.56,47.56,0,0,1,4.69,1.41c1.54.52,3.06,1.11,4.56,1.71,3,1.19,6,2.51,8.91,3.81l4.41,1.93c1.48.64,2.93,1.22,4.4,1.77l1.14.41,1,.24a4.9,4.9,0,0,0,1.07.17l1.1.11a32.21,32.21,0,0,0,4.6-.2c1.55-.17,3.1-.42,4.65-.74s3.09-.65,4.63-1,3.07-.81,4.6-1.26,3.05-.94,4.52-1.45l2.61-.91-.68,2.68-2,8-.19.75-.71.27c-1.18.44-2.32.83-3.49,1.21s-2.34.73-3.51,1.06-2.36.64-3.55.93-2.39.56-3.59.78-2.42.43-3.64.6-2.45.29-3.69.36c-.61.06-1.26.06-1.89.07s-1.27,0-1.86,0l-.9,0-.5,0-.48-.06-1.9-.25c-1.23-.26-2.46-.51-3.64-.89s-2.35-.78-3.51-1.18-2.29-.9-3.39-1.41-2.22-1-3.32-1.55-2.18-1.1-3.24-1.67-2.13-1.18-3.18-1.79c-2.1-1.23-4.15-2.5-6.18-3.86h.87c-3.13,2-6.3,4-9.44,6l-.4.25-.23-.38L217.64,231Z" transform="translate(-27.56 -48.49)"/><path class="cls-12" d="M214.63,255.14s17.69-2,23.69,0a151.75,151.75,0,0,0,14.75,3.75h5.5a48,48,0,0,1,6.25,5.75c1.75,2.25.63,6.88.63,6.88s-7.63-5.38-11.13-3.88-21.79,15.88-26.59,15-10.12-9.87-10.12-9.87Z" transform="translate(-27.56 -48.49)"/><path class="cls-10" d="M270.74,190.64s7.94-15.75,10.14-18.25,10.14-5,10.14-5v9.5l-2.69-5.5-7.45,4Z" transform="translate(-27.56 -48.49)"/><path class="cls-10" d="M276,211.16l2.55,1.48s4-1.5,4.75-2.5a50.48,50.48,0,0,1,4.07-3.89l-5.68,6.39h-4.89Z" transform="translate(-27.56 -48.49)"/><path class="cls-3" d="M271.7,204.85a16,16,0,0,0-1,5.25c0,2.75,5.25,3.41,5.25,3.41l-4,6.91" transform="translate(-27.56 -48.49)"/><path class="cls-2" d="M271.7,204.85c0,1.08,0,2.08,0,3.07,0,.49,0,1,.09,1.43l.08.69c0-.14.11.59.17.4,0,0,.11.07.18.15a3.06,3.06,0,0,0,.36.26,5.12,5.12,0,0,0,1,.5,12.25,12.25,0,0,0,1.23.41l.65.17.63.14,2.19.44-1.12,1.72a35.57,35.57,0,0,1-2.36,3.24c-.44.52-.87,1-1.36,1.52a15.6,15.6,0,0,1-1.53,1.42,15.6,15.6,0,0,1,.47-2c.18-.66.41-1.3.64-1.94a35.56,35.56,0,0,1,1.64-3.67l1.07,2.16c-.33,0-.58-.07-.87-.12s-.55-.11-.82-.18a9.44,9.44,0,0,1-1.63-.57,7.56,7.56,0,0,1-.81-.42,5.73,5.73,0,0,1-.79-.58,5.34,5.34,0,0,1-.73-.79,3.77,3.77,0,0,1-.54-1.18c0-.12-.06-.24-.08-.36V210c0-.28.07-.55.14-.82a10,10,0,0,1,.46-1.57A9.19,9.19,0,0,1,271.7,204.85Z" transform="translate(-27.56 -48.49)"/><path class="cls-13" d="M180.82,152.14s18.75-6.75,25.25-2.5,29.5,35.27,32.25,35.51,8.25-5.46,8.25-5.46l-6.35,1.7s-28.15-41.25-33.9-42S180.82,152.14,180.82,152.14Z" transform="translate(-27.56 -48.49)"/><path class="cls-13" d="M291,152.14s-6.67-6.75-9-2.5-10.49,35.27-11.47,35.51-2.93-5.46-2.93-5.46l2.26,1.7s10-41.25,12.06-42S291,152.14,291,152.14Z" transform="translate(-27.56 -48.49)"/><path class="cls-5" d="M149.54,122.11s-18.22-35.37-41.78-42.39-40.14-8.85-40.14-8.85L83.21,86.68s-29-6.06-38.85,1.26S27.83,94.8,27.83,94.8s40.24,7.52,47.56,17.4S88,117.77,88,117.77l-20.36-.27s8.21,6.76,22.85,17.15,50.25,8.78,50.25,8.78" transform="translate(-27.56 -48.49)"/><path class="cls-6" d="M149.54,122.11c-2.07-3.71-4.38-7.28-6.79-10.77s-5-6.88-7.7-10.12c-1.35-1.63-2.78-3.19-4.22-4.73s-3-3-4.52-4.43-3.17-2.77-4.84-4a55.23,55.23,0,0,0-5.19-3.53,39.55,39.55,0,0,0-5.58-2.78,50.34,50.34,0,0,0-6-1.9c-2-.59-4.09-1.1-6.14-1.64s-4.11-1-6.17-1.5-4.13-.94-6.2-1.37-4.15-.85-6.23-1.23-4.16-.74-6.25-1.07-4.19-.62-6.25-.86l1-2.17L84.2,85.71l3.18,3.2L82.93,88c-2.3-.45-4.68-.82-7-1.15s-4.73-.58-7.1-.78a74.53,74.53,0,0,0-14.14,0A27.62,27.62,0,0,0,48,87.66a13.19,13.19,0,0,0-2.85,1.55c-1,.7-2,1.4-3,2.08S40,92.58,38.84,93.15A36.13,36.13,0,0,1,35.4,94.7a29.28,29.28,0,0,1-3.65,1.12c-.63.14-1.27.26-1.92.35a12.81,12.81,0,0,1-2.1.12l.38-2.95c2.76.53,5.47,1.12,8.19,1.74s5.42,1.29,8.12,2c5.39,1.42,10.75,3,16,4.93,1.32.49,2.62,1,3.92,1.56s2.59,1.13,3.86,1.77A42.88,42.88,0,0,1,72,107.43a21.32,21.32,0,0,1,3.49,2.77c.28.26.52.59.78.89l.33.4.32.41a20.06,20.06,0,0,0,1.29,1.56,14.92,14.92,0,0,0,1.34,1.35A12.38,12.38,0,0,0,81,116a7.93,7.93,0,0,0,3.25,1.35,4.7,4.7,0,0,0,1.64,0,4.53,4.53,0,0,0,.77-.22,4,4,0,0,0,.6-.31L88,119l-20.36-.46.71-1.93c2.55,2.11,5.18,4.19,7.81,6.23s5.3,4.06,8,6.06l4,3,2,1.48c.33.23.69.52,1,.71l1,.7a31.73,31.73,0,0,0,4.32,2.24,47.89,47.89,0,0,0,4.63,1.73c1.58.5,3.17,1,4.79,1.33s3.24.72,4.88,1c3.27.59,6.58,1,9.9,1.38s6.65.56,10,.72,6.68.23,10,.18a161.12,161.12,0,0,1-20.08-.16c-3.34-.24-6.68-.58-10-1.08-1.66-.26-3.32-.54-5-.89s-3.29-.74-4.92-1.2A46.54,46.54,0,0,1,96,138.44a33.1,33.1,0,0,1-4.62-2.29l-1.06-.68c-.4-.25-.7-.48-1.06-.73l-2.06-1.44-4.1-2.91Q79,127.47,75,124.47c-2.69-2-5.35-4-8-6.13l-2.43-1.94h3.14l20.37.08,3.76,0-3,2.25a5.63,5.63,0,0,1-1.22.69,7.07,7.07,0,0,1-1.22.38,7.27,7.27,0,0,1-2.49.09,10.49,10.49,0,0,1-4.38-1.74,15,15,0,0,1-1.78-1.39,17.56,17.56,0,0,1-1.6-1.58c-.55-.55-.92-1.08-1.37-1.63l-.33-.4-.19-.23-.15-.17c-.2-.22-.37-.46-.6-.67a18.74,18.74,0,0,0-3-2.35c-1.13-.69-2.29-1.34-3.51-1.93s-2.45-1.14-3.71-1.66-2.53-1-3.82-1.47c-5.14-1.87-10.43-3.41-15.76-4.79q-4-1-8-1.94c-2.68-.6-5.39-1.18-8.08-1.69l.38-2.95a11.14,11.14,0,0,0,1.5-.1c.54-.08,1.09-.18,1.64-.3a27,27,0,0,0,3.25-1,33.15,33.15,0,0,0,3.15-1.41c1-.52,2-1.11,3-1.71s1.94-1.28,2.93-2a16.28,16.28,0,0,1,3.48-1.88,30.44,30.44,0,0,1,7.4-1.69,77.29,77.29,0,0,1,14.72,0c2.43.2,4.85.49,7.26.84s4.79.75,7.21,1.25l-1.27,2.33L66.71,71.77l-2.55-2.61,3.6.44c2.16.27,4.25.61,6.37,1s4.2.77,6.29,1.2,4.18.88,6.26,1.36,4.15,1,6.22,1.5,4.13,1.07,6.19,1.63,4.12,1.14,6.15,1.76a52.08,52.08,0,0,1,6.12,2.08,41.23,41.23,0,0,1,5.76,3,55.7,55.7,0,0,1,5.27,3.74c1.67,1.35,3.28,2.78,4.81,4.27s3,3,4.44,4.63,2.8,3.23,4.11,4.91c2.65,3.34,5.11,6.83,7.42,10.4A126.79,126.79,0,0,1,149.54,122.11Z" transform="translate(-27.56 -48.49)"/><path class="cls-14" d="M124.91,144s8.23-5,10.75-11.07.83-24.61.83-24.61.43-1.61,3.37-1,8.18,8.6,10.7,9.23,3.46-.63,3.46-.63,1.34,15.74-1.27,19.72-6.6,12.17-9.53,13.22-5.27.84-9,0S124.91,144,124.91,144Z" transform="translate(-27.56 -48.49)"/><path class="cls-15" d="M262.91,75s8.5,5.28,8.5,10.39-8.5,12.11-8.5,12.11l4.25-2s9-3,8.15-9.25S262.91,75,262.91,75Z" transform="translate(-27.56 -48.49)"/><path class="cls-15" d="M265.72,101.37s9.74-2.28,13.36,1.34,2.55,14.57,2.55,14.57l1.59-4.42s4.27-8.52-.78-12.3S265.72,101.37,265.72,101.37Z" transform="translate(-27.56 -48.49)"/><path class="cls-15" d="M300.51,111.54s-8.5-5.28-8.5-10.39S300.51,89,300.51,89l-4.25,2s-9,3-8.15,9.25S300.51,111.54,300.51,111.54Z" transform="translate(-27.56 -48.49)"/><path class="cls-15" d="M297.7,85.2s-9.74,2.28-13.36-1.34-2.55-14.57-2.55-14.57l-1.59,4.42s-4.27,8.52.78,12.3S297.7,85.2,297.7,85.2Z" transform="translate(-27.56 -48.49)"/></svg>