<?xml version="1.0" encoding="utf-8"?>
<!-- Generator: Adobe Illustrator 20.1.0, SVG Export Plug-In . SVG Version: 6.00 Build 0)  -->
<svg version="1.1" id="Layer_1" xmlns="http://www.w3.org/2000/svg" xmlns:xlink="http://www.w3.org/1999/xlink" x="0px" y="0px"
	 viewBox="0 0 426 349.7" style="enable-background:new 0 0 426 349.7;" xml:space="preserve">
<style type="text/css">
	.st0{fill:#464363;}
	.st1{fill:#FFFFFF;stroke:#97A2B7;stroke-miterlimit:10;}
	.st2{fill:#D9D9E9;}
	.st3{fill:#6D60AA;stroke:#000000;stroke-miterlimit:10;}
	.st4{fill:#FDD6C0;stroke:#EFB797;stroke-miterlimit:10;}
	.st5{fill:#EFB797;}
	.st6{fill:#080707;}
	.st7{fill:#F48284;stroke:#EE1C4E;stroke-miterlimit:10;}
	.st8{fill:#201D1E;stroke:#DBD7D7;stroke-miterlimit:10;}
	.st9{fill:#302B2D;stroke:#DBD7D7;stroke-miterlimit:10;}
	.st10{fill:#4A4747;stroke:#000000;stroke-miterlimit:10;}
	.st11{fill:#4A4747;}
	.st12{fill:#301117;}
	.st13{fill:#FFFFFF;}
	.st14{fill:#302B2D;}
	.st15{fill:#0E090B;stroke:#DBD7D7;stroke-miterlimit:10;}
	.st16{fill:#EE1C4E;}
	.st17{fill:#F8BDCE;}
</style>
<path class="st0" d="M323.6,294.9c0,0-15.2,8.1-22.2,11.3c-7,3.2-25.5,7.2-25.5,7.2l-32.9,36.3l86.3,2.2l24.4-16.5L323.6,294.9z"/>
<path class="st1" d="M144.8,223c0,0-70,43.1-75,50.6s-24,57.5-24,57.5l-10,18.6h239.5l18-46.6l-31.5-51.5l-26.5-17.5L144.8,223z"/>
<path class="st2" d="M212.5,253.9c10,3.4,19.6,7.9,27.9,14.5c8.8,7,14.5,15.9,18.6,26.3c5.3,13.5,8.6,28.1,16,40.7
	c1,1.8,2.1,3.6,3.3,5.3l18.5-31.9l-35.3-57.7l-26.5-17.5l-90.5-11.1c0,0-5.7,3.5-13.9,8.7c17,3.9,33.7,9,50,15.1
	C191.3,248.1,202,250.4,212.5,253.9z"/>
<path class="st1" d="M56.4,304c0,0,20.4-19.4,29.9-17.7c9.5,1.7,40,34.7,45,39.7c5,5,13.5,14.5,13.5,14.5"/>
<path class="st1" d="M105.8,266.1c0,0-11.5,7.5-15.5,11.5s-4,8.8-4,8.8"/>
<path class="st1" d="M269.8,347.1c0,0-1.5-40-5-47s-13.5-13.8-13.5-13.8"/>
<path class="st3" d="M159.2,279.8c0,0,46.3,46.9,58.7,40.8c12.4-6.1,14.4-47,14.4-47l-4.4-26.1c0,0-19.1,21.5-28.7,25.6
	S159.2,279.8,159.2,279.8z"/>
<path class="st3" d="M182.2,291.3c3-0.2,5.8-1.1,8.5-2.3l-11.9-17.4l-50-57.7l-26,12.2c0,0-25.5,11.5-27.5,14.5s-8.1,37.9-8.1,37.9
	v3.1c0,0,29.6-17,36.1-15.5s46.5,4.5,53,8.3c2.4,1.4,11.2,8.6,21.1,16.9C179,291.3,180.6,291.4,182.2,291.3z"/>
<path class="st4" d="M129.7,124.5c0,0,9.3,36,21,53.8s38.8,38.5,53.8,38.5s28.3-35.5,28.8-53.8s-1.3-82-22.8-90
	s-61.8-16.7-76.5,13.5S129.7,124.5,129.7,124.5z"/>
<path class="st5" d="M213.1,73c-21.5-8-61.8-16.7-76.5,13.5s-4.3,38-4.3,38s3.3,12.9,8.5,27.1c8.6-5.3,18.1-9.3,28.1-11.3
	c11.1-2.2,22.7-5.2,34.1-4.3c9.7,0.8,18.6,5.8,20.7,15.9c1.1,5.3,0.7,10.8,0.9,16.2c0.2,6-0.1,12-1.3,17.9
	c-2,10.2-6.9,20.8-13.8,28.7c-0.6,0.7-1.2,1.3-1.9,2c14.8-0.7,27.8-35.6,28.3-53.7C236.4,144.7,234.6,81,213.1,73z"/>
<path class="st6" d="M150,148.2l24.7,5.3c0,0-1.3-12.9,16.8-12.5s17,9.2,17,9.2s5.5,1.8,9,1.3s5.3-4.2,5.3-4.2s-2.5-9.5,8.8-8.3
	s17.8,9.3,14.8,14.5s-6.8,15.4-13.3,13.6S219.7,156,219.7,156l0.5-2.9c0,0-0.8,0.3-4,0c-3.3-0.3-7.5,0-7.5,0s-0.5,16.2-13,18.2
	S173.4,158,173.4,158l-23.8-2.8L150,148.2z"/>
<path class="st4" d="M135.3,177.1c0,0,2.9,20.4,2.6,26.1c-0.2,5.8-9,25.8-9,25.8s19,27.3,23.3,28.5s17.8,9.8,22,7.3s17-15.5,17-15.5
	s-5.8-17-2.3-26.3c3.6-9.2,2.3-9.9,2.3-9.9l-8.3-4.5l-10.7-7.7l-18.9-19.1l-4.1,5.6l-2.3,0.3l-1.9-3.6l-2.1-4.6L135.3,177.1z"/>
<path class="st5" d="M188.9,221.3c3.6-9.2,2.3-9.9,2.3-9.9l-8.3-4.5l-10.7-7.7l-18.9-19.1l-4.1,5.6l-2.3,0.3l-1.9-3.6l-2.1-4.6
	l-7.6-2.4c0,0,2.8,20.2,2.6,26c5.2,1.9,10.3,3.8,15,6.6c17.8,10.4,26.1,31.3,25.4,51.8c5.4-4.7,12.9-12.3,12.9-12.3
	S185.3,230.5,188.9,221.3z"/>
<path class="st1" d="M216.9,189c-8,2.1-22.8,0.5-23.5,3s12.8,5.3,20,3.5s14.8-8.6,14.8-8.6l2.4-7.9C230.6,179,220.9,188,216.9,189z"
	/>
<path class="st4" d="M220.2,153.1c0,0-1.3,7.4,0,8.4s7.5,3,8,5.5s-6,9-6,9"/>
<path class="st3" d="M104.7,142.2c0,0-2.5-50,1.3-56.3s32-41.7,56.8-41.2s45.4,6.3,56.9,13.8S240.2,79,240.2,79s-27.8,2-44.3,9
	s-67.8,40.5-68.5,41.3c-0.8,0.8-22.3,14.9-22.3,14.9L104.7,142.2z"/>
<path class="st0" d="M163.1,48.5c15.3,4.4,31,10.9,42.4,22.5c3.5,3.5,6.3,7.5,8.6,11.7c13.3-2.8,26.1-3.7,26.1-3.7s-9-13-20.6-20.5
	c-11.6-7.5-32.2-13.3-56.9-13.8c-3.1-0.1-6.2,0.4-9.3,1.3C156.6,46.8,159.9,47.6,163.1,48.5z"/>
<path class="st3" d="M104.7,142.2c0,0-24,17.8-28.3,24.8s-7,9.5-5.8,15.8s-2.3,13.1,11.3,13.3c13.5,0.2,39.2-6.6,39.2-6.6
	L104.7,142.2z"/>
<path class="st0" d="M110,156.4c-4.5-0.1-8.2-0.5-12.5,1.8c-5.7,3-11.6,6.2-15.2,11.7c-3.6,5.4-5.3,12.2-3.1,18.6
	c1.4,4,5.6,4.2,9.1,5.6c0.9,0.4,1.6,0.9,2.2,1.5c13.7-1.5,31-6.1,31-6.1L110,156.4z"/>
<path class="st7" d="M130.4,127.2l-25.2,16.9c0,0-5.8,10.4-7,17.4s0,22.8,0,22.8s1.6-15.5,5.7-21.3c4.1-5.8,9.6-15.8,9.1-14.6
	c-0.5,1.1-6.8,17.9-5.8,24.1s6,18.9,6,18.9l4.3-32.1c0,0-2.3,21.2,3.7,28.2s11.8,14,11.8,14l-1.5-19.5l6.1,14.1l-2.2-18.9
	c0,0-4.6-1.9-4.4-12.8s6.1-16,6.1-16L130.4,127.2z"/>
<path class="st4" d="M144.4,156.7c0,0-6-12.5-15-7s-11.5,15.3-3.4,22.3s14.6,5.3,16.9,7.5s2.3,9.8,6.3,8s5.5-11,5.5-11"/>
<path class="st7" d="M205.7,110.2c0,0-2.3-10.5-6.1-8.5c-3.9,2-3.9,40.5-3.9,40.5l-4.3-25.3c0,0-7.7,17.1-5.7,24s3.5,7.3,3.5,7.3
	s-13.8-14.7-13.3-21.1s0-15.7,0-15.7s-9.7,27.3-9.5,32.6c0.3,5.4,5.6,21.9,5.6,21.9l-16.1-33.8c0,0-6.5,17.8-6.3,22.9s2.5,14,2.5,14
	L132.7,141l-5.3-11.8c0,0,45.7-37.3,52.2-38.3c6.5-1,16.3-5.5,19.9-4.4c3.6,1.1,9.4,8.9,9.4,8.9l1.5,8L205.7,110.2z"/>
<path class="st7" d="M199.6,87.7c0,0,27.6-17.3,45.4-15.3s31,30.8,31,30.8s-21.3-23.5-28-23s-11.3,1.3-11.3,1.3l13.3,0.8
	c0,0,22.3,34.5,23.3,47.5s-1,14.4-1,14.4l-18.5-42.6c0,0-2.8,22.3-0.3,32.3s-3.3,35.4-3.3,35.4s-4-20.9-8.8-36.9s-3-14.3-3-14.3
	l-0.5,17.5L222.2,102c0,0,0.4,1.7,1,4.2c1.5,6.4,4.1,18.3,3.8,21c-0.5,3.8-6,8.3-6,8.3l-1.3-29.8l-9.2,7.3l-5-9.5"/>
<path class="st8" d="M134.3,215.8l3.6-12.6c0,0-14.6-1.8-16.8,2.6c-2.1,4.3-16.1,22.3-13.8,30.7c2.3,8.3,30.6,27,30.6,27
	s9.8-2.9,13.1,1.7s3.7,5.6,3.7,5.6l10-7.7c0,0-23.6-18.6-27.1-22.3c-3.5-3.7-17.2-19.7-14.5-22.4
	C125.7,215.8,134.3,215.8,134.3,215.8z"/>
<ellipse transform="matrix(0.3891 -0.9212 0.9212 0.3891 -114.4038 354.2737)" class="st9" cx="209.9" cy="263.4" rx="21.4" ry="26.2"/>
<ellipse transform="matrix(0.3891 -0.9212 0.9212 0.3891 -143.9256 337.277)" class="st9" cx="182.3" cy="277.2" rx="22.3" ry="27.1"/>
<ellipse transform="matrix(0.3891 -0.9212 0.9212 0.3891 -148.1115 336.4972)" class="st10" cx="179.7" cy="279.9" rx="18.3" ry="23.9"/>
<path class="st8" d="M156.9,261.9c0,0,5.4,9.5,14.8,14.4s30.7,10.8,30.7,10.8s-2.7,6.3-5,7.9s-5.9,2.6-5.9,2.6s-15.5-5.9-20.5-10.5
	S154,269.6,154,269.6"/>
<path class="st11" d="M197.5,260.3c0,0,1.9-6.8,5.7-5.5c3.8,1.4,11.8,6.6,11.3,8.5s-7,9.8-7,9.8L197.5,260.3z"/>
<path class="st8" d="M219.8,244.4c-0.3-0.1-10.2-8.5-15.9-11s-15.7-7.4-15.7-7.4s-0.3,7.2-0.2,7.5c0,0.3,9.6,5.4,9.6,5.4l2.7,3
	c0,0,6.4-1,9.7-0.4S219.8,244.4,219.8,244.4z"/>
<path class="st3" d="M149,52.2c0,0-9.9,19-11.1,24.3c-1.2,5.3,2.8,32,2.8,32"/>
<path class="st7" d="M185.7,76.2c0,0,4-19,9.7-18.7c5.7,0.3,24.3,14.8,24.3,14.8l-2,6.1c0,0-11.2-0.4-18.1,0
	c-6.9,0.4-13.9,4.7-13.9,4.7V76.2z"/>
<path class="st7" d="M193.4,61.8c0,0,14-10.7,21.3-6.1c7.4,4.5,18.5,22.5,18.5,22.5L217,70.3c0,0,10.1,11.2,11.2,17.5
	c1.1,6.3,2.4,15.3,2.4,15.3l-22.6-28l4,17.3l-12.5-16.3"/>
<path class="st3" d="M113,215.3l-26.7,16.3c0,0-1,14.3,4.3,16.7c5.3,2.3,41.1,11,41.1,11s-24.1-18.9-24.5-22.8
	c-0.3-3.9,5.7-17.7,5.7-17.7L113,215.3z"/>
<path class="st0" d="M198.2,302.2c0,0,7.3,8.3,14.5,7.7c7.2-0.7,13.8-24.8,13.8-24.8s-10,19.2-14.2,19.5
	C208.2,304.9,198.2,302.2,198.2,302.2z"/>
<path class="st12" d="M195.3,168c-3.8,0.2-13.9-4.9-15-8s5.6-5,13.1-4.9c7.5,0.1,8.2-1.5,9,1.8s-0.9,8.1-2.8,9.3
	S195.3,168,195.3,168z"/>
<path class="st12" d="M236.7,164.9c-3.3,0.2-12.1-4.9-13.1-8s4.9-5,11.5-4.9c6.5,0.1,7.2-1.5,7.9,1.8c0.7,3.3-0.8,8.1-2.5,9.3
	C238.7,164.2,236.7,164.9,236.7,164.9z"/>
<ellipse transform="matrix(0.5763 -0.8172 0.8172 0.5763 -46.3243 209.1787)" class="st13" cx="178.6" cy="149.3" rx="3.9" ry="1.9"/>
<ellipse transform="matrix(0.5763 -0.8172 0.8172 0.5763 -24.5086 247.7366)" class="st13" cx="226.7" cy="147.5" rx="3.9" ry="1.9"/>
<path class="st0" d="M109,254.7l22.8,4.6l6.1,4.2c0,0,8.6-1.9,10.8-0.1c2.3,1.8,7.6,10.9,7.6,10.9l-50.5-8.3l21.6-0.9L109,254.7z"/>
<path class="st0" d="M103.9,252.2c0,0,4.5-0.9,7.2-2.9c2.7-2,0-7.8,0-7.8l20.7,17.8L103.9,252.2z"/>
<path class="st14" d="M133.7,241.4c0,0,16.8,11.2,18.3,13.2c1.5,2.1,4.3,5.2,4.3,5.2s-5.3-2.8-7.8-2.4s-10.6,3.3-10.6,3.3
	l-19.2-16.4c0,0,12.6,11.5,16.6,8.3C139.2,249.4,133.7,241.4,133.7,241.4z"/>
<path class="st14" d="M158.2,268.1c0,0,8.7,8,10.3,9.1c1.7,1.1,30.8,11.7,30.8,11.7l-6.8,7l-11.7-6c0,0,6.1,1.6,8,0.3
	c1.9-1.3-20.8-11.3-20.8-11.3L158.2,268.1z"/>
<path class="st15" d="M123,218.5c0,0-0.8-4.9,5.7-7.1c6.5-2.2,7.1-1.1,7.1-1.1l-1.6,5.5L123,218.5z"/>
<path class="st14" d="M158.5,274.3c0,0,8.1,10.2,13.6,13.6c5.4,3.4,18.7,9.6,18.7,9.6s-13.9-1.6-18.4-3.9
	C167.9,291.2,158.5,274.3,158.5,274.3z"/>
<path class="st16" d="M195.7,141c0,0-0.5-38.5,3.9-39.3s6.1,8.5,6.1,8.5s2.8-14.6-6.1-13.3S195.7,141,195.7,141z"/>
<path class="st16" d="M189.2,148.3c0,0-3-6.1-3.8-11.3s6-20.1,6-20.1l-0.1-12.6l-2,12.5c0,0-6.5,11.5-7.1,17
	C181.8,139.4,189.2,148.3,189.2,148.3z"/>
<polygon class="st16" points="173.4,100.4 175.9,111.5 166.4,144.1 171.5,164.3 160.2,141.1 163.4,144.1 168.9,113.7 "/>
<path class="st16" d="M158.5,137.5l-2.5-5.3c0,0-8.4,22.6-6.3,22.9c2.2,0.3,2.5,14,2.5,14s-9.9-12.8-7.3-19.9
	c2.6-7.1,9.8-20.6,9.8-20.6l1.5-6.8L158.5,137.5z"/>
<path class="st17" d="M226.7,81.9l7.7,10.5l1.5-9.3l18.5,11.3c0,0-12.8-6.5-11.3-6.3s3.9,25.7,3.9,25.7l-9.2-23l-1.8,20.8l-2.7-17.2
	L226.7,81.9z"/>
<polygon class="st17" points="177.3,97.9 177.3,104.4 180.2,103.2 178.7,120.7 185.7,108.5 185.7,113.9 190.8,98.9 191.4,103.2 
	193.4,96.8 193.4,92.7 188.6,97.9 185.4,106.7 185.7,97.9 182.3,106.7 182.3,100.4 182.3,95 "/>
<polygon class="st17" points="160.2,113.9 161.4,132.4 164.6,120.7 163.4,132.4 168.1,105.4 163.4,117.4 "/>
<path class="st2" d="M70.4,309.9l-12,37.1l-17.5,2c0,0,10.5-6.2,14.7-15.2S70.4,309.9,70.4,309.9z"/>
<polygon class="st2" points="103.9,321.2 112.4,347.1 126.1,349.7 115,340.6 "/>
<path class="st2" d="M96.1,279.7c0,0,13.3,8.1,16.8,6.7c3.5-1.4-3.9-13.1-3.9-13.1s20.1,17.4,26.3,24.3s19.4,32,19.4,32l-25.3-32
	l-20.4-6.2L96.1,279.7z"/>
<polygon class="st2" points="83.9,241.4 91.2,252.6 107.1,257.7 86.3,255.7 "/>
<path class="st2" d="M107.1,88.9c3.7-5.3,16-16.6,16-16.6s-12.3,17.3-12.3,22.1s-0.7,16.8-0.7,16.8L107.1,88.9z"/>
<path class="st1" d="M193.4,306.2c0,0,2.5,11.7,2.3,18.3c-0.3,6.7-4.9,19.3-4.9,19.3v5.8h8.6c0,0-2-6.4-1.2-11.4
	c0.8-5,5.1-18.3,4.1-22c-1-3.7-3-8.7-3-8.7L193.4,306.2z"/>
<path class="st1" d="M223.5,309.9c1.3-6.4,3.8-5.1,3.8-5.1s5,13.6,4.9,16.3c-0.1,2.7,0,27.9,0,27.9l-5.6,0.6c0,0,1.8-19.4,0-24.8
	C224.7,319.6,223.5,309.9,223.5,309.9z"/>
<path class="st2" d="M199.4,328.3c-0.7,3.1-2.3,6-3.2,9.1c-0.8,3.1-0.9,6.3-0.7,9.4c0.1,0.9,0.2,1.9,0.3,2.8h4.1c0,0-2-6.4-1.2-11.4
	s5.1-18.3,4.1-22s-3-8.7-3-8.7l-3.8-0.8C199.8,313.3,200.9,321.8,199.4,328.3z"/>
<path class="st2" d="M227.5,313.2c0.5,3.5,1.4,6.6,2.5,9.9c2.4,7.1,2.2,14.4,0.8,21.7c-0.3,1.6-0.8,3.2-1.4,4.7l3.3-0.3
	c0,0-0.1-25.2,0-27.9c0.1-2.7-4.9-16.3-4.9-16.3s-1.2-0.6-2.3,1C226.6,308.1,227.1,310.6,227.5,313.2z"/>
<path class="st4" d="M316.6,296.5c-0.1,2-0.2,3.7-0.3,5.3c2.2-1.5,4.4-3.2,6-4.1c4.8-2.8,10.1-4.8,15.3-6.9l-1.8-1.3
	c0,0,5.4-10,6.6-20.4c1.2-10.5-6.3-19.1-12.6-25.5c-6.3-6.4-6.3-0.7-7.8,5.5s4.7,14.7,4.2,25.9C325.6,286.2,316.9,288,316.6,296.5z"
	/>
<path class="st5" d="M329.7,244c-3.6-3.7-5.2-3.3-6.1-1.2c7.6,7.4,10.6,18.6,10.4,29.1c-0.1,7.9-1.7,16.2-5.6,23.1
	c3-1.3,6-2.5,9-3.7l-1.8-1.3c0,0,5.4-10,6.6-20.4C343.5,259,336,250.4,329.7,244z"/>
<path class="st4" d="M317.3,300.7c-4.4,7.2,0.7,26.6,2.2,36.9c1.5,10.4,17.4,6.4,17.4,6.4l26.2-1.7l11.3-56.8l-13.9-12.6
	c-1,0.5-2,1.1-2.9,1.6c-6,3.3-12.2,6.1-17.7,10.5c-4,3.2-8.6,7.3-13.6,6.5"/>
<path class="st4" d="M308.4,285.6"/>
<path class="st4" d="M333,289.9c-0.1,0-0.1,0-0.2,0"/>
<path class="st4" d="M375.4,281.6c0,0-10.7-10-19.3-8.7c-8.6,1.2-18.3,7.5-18.3,7.5l2.6,13.8c0,0,13.5-8.5,17.6-6.6
	c4.1,1.9,15.3,13.4,15.3,13.4s10.3-2.3,10.3-8.9C383.8,285.4,375.4,281.6,375.4,281.6z"/>
<path class="st4" d="M369.7,291.5l-7.4-6.7l-25.9,12.4l-1.1,11.7c0,0,12.2-4.8,16.9-2.7c4.7,2.1,24.2,14.4,24.2,14.4s5.2,3.3,7.1-6
	c1.9-9.3-5.2-15.4-5.2-15.4"/>
<path class="st4" d="M372.3,316.7l-21.1-11.4l-13.2,2.1l-2.3,14c0,0,7.8-0.5,12.2,1.6c4.5,2.1,21.8,18.5,21.8,18.5s9.9-2,11-9.7
	C381.7,324,372.3,316.7,372.3,316.7z"/>
<path class="st4" d="M369.4,339.5L352,322.1l-12,0.6l-0.8,9c0,0,6.7,3.1,9.6,4.7c3,1.6,12.7,8.6,14.9,8.6s7.6-1.6,9.4-6.6"/>
<path class="st5" d="M364.6,343.2L350,330l-10.8,1.9v4.8c0,0,7.2-0.9,10.8,2s3.7,4.4,3.7,4.4l-11,0.2c0,0,12.2,5,15.4,4.6
	c3.3-0.4,9-3.5,9-3.5L364.6,343.2z"/>
<polygon class="st5" points="336.6,321.3 336.2,318.2 348.8,318.2 354.9,325 346.2,321.6 340,322.8 "/>
<polygon class="st5" points="335.4,309 351.2,305.3 372.3,316.7 353.1,300.7 "/>
<path class="st5" d="M128.9,168c0,0-3.3-10.7-0.2-12.9c3.2-2.2,6.4-5.3,10.8,0c4.4,5.3,4.9,9.2,4.9,9.2s-7.5,0.6-4.8,3.7
	s5.8,8.1,8,6.4s2-6.4,2-6.4l3.7,7.9c0,0-6.8,3.7-11.5-1.8s-6-14.5-6-14.5L128.9,168z"/>
<polygon class="st5" points="220.2,161.5 219.7,156 226.7,163.4 "/>
<path class="st16" d="M217,70.3l-10.3-6.6c0,0,12.5,17.5,13.8,20s10.6,20.1,10.6,20.1s-1.4-14.2-3.5-18.2
	C225.4,81.4,217,70.3,217,70.3z"/>
<path class="st16" d="M212.4,54.6c0,0,8.1,5.3,13.1,12.4s8.3,11,8.3,11l-19.5-9.3l14.2,5.3c0,0-9.3-5.4-12-8.6
	c-2.8-3.2-11.9-9.6-11.9-9.6L212.4,54.6z"/>
<path class="st16" d="M113.3,190.4l4.3-34l2.4-7.1c0,0-7.4,13.4-8,17.9s-1.7,16.6-1.7,16.6L113.3,190.4z"/>
<path class="st16" d="M135.3,177.1c0,0,2.8,20.4,2.6,20c-0.2-0.3-7.5-15.5-7.5-15.5s2.5,20.5,2.5,19.8c-0.1-0.7-5.5-28.1-5.5-28.1
	s2.3,2.5,4.4,3.7S135.3,177.1,135.3,177.1z"/>
</svg>
