<?xml version="1.0" encoding="UTF-8" standalone="no"?>
<!-- Created with Inkscape (http://www.inkscape.org/) -->

<svg
   xmlns:dc="http://purl.org/dc/elements/1.1/"
   xmlns:cc="http://creativecommons.org/ns#"
   xmlns:rdf="http://www.w3.org/1999/02/22-rdf-syntax-ns#"
   xmlns:svg="http://www.w3.org/2000/svg"
   xmlns="http://www.w3.org/2000/svg"
   xmlns:sodipodi="http://sodipodi.sourceforge.net/DTD/sodipodi-0.dtd"
   xmlns:inkscape="http://www.inkscape.org/namespaces/inkscape"
   width="82.450752mm"
   height="127.93427mm"
   viewBox="0 0 292.14834 453.31042"
   id="svg2"
   version="1.1"
   inkscape:version="0.91 r"
   sodipodi:docname="kawaii_rocket.svg">
  <defs
     id="defs4">
    <inkscape:path-effect
       is_visible="true"
       id="path-effect5408"
       effect="spiro" />
    <inkscape:path-effect
       is_visible="true"
       id="path-effect4278"
       effect="spiro" />
    <inkscape:path-effect
       effect="spiro"
       id="path-effect4274"
       is_visible="true" />
    <inkscape:path-effect
       is_visible="true"
       id="path-effect4270"
       effect="spiro" />
    <inkscape:path-effect
       effect="spiro"
       id="path-effect4264"
       is_visible="true" />
    <inkscape:path-effect
       effect="spiro"
       id="path-effect4252"
       is_visible="true" />
    <inkscape:path-effect
       effect="spiro"
       id="path-effect4201"
       is_visible="true" />
    <inkscape:path-effect
       effect="spiro"
       id="path-effect4197"
       is_visible="true" />
  </defs>
  <sodipodi:namedview
     id="base"
     pagecolor="#ffffff"
     bordercolor="#666666"
     borderopacity="1.0"
     inkscape:pageopacity="0.0"
     inkscape:pageshadow="2"
     inkscape:zoom="2.4612394"
     inkscape:cx="132.45865"
     inkscape:cy="152.85555"
     inkscape:document-units="px"
     inkscape:current-layer="layer1"
     showgrid="false"
     inkscape:window-width="1920"
     inkscape:window-height="1014"
     inkscape:window-x="0"
     inkscape:window-y="27"
     inkscape:window-maximized="1"
     fit-margin-top="10"
     fit-margin-left="10"
     fit-margin-right="10"
     fit-margin-bottom="10"
     showguides="false" />
  <metadata
     id="metadata7">
    <rdf:RDF>
      <cc:Work
         rdf:about="">
        <dc:format>image/svg+xml</dc:format>
        <dc:type
           rdf:resource="http://purl.org/dc/dcmitype/StillImage" />
        <dc:title></dc:title>
      </cc:Work>
    </rdf:RDF>
  </metadata>
  <g
     inkscape:label="Layer 1"
     inkscape:groupmode="layer"
     id="layer1"
     transform="translate(-370.78512,-110.51811)">
    <path
       sodipodi:nodetypes="czczzczzcczzcssczc"
       inkscape:connector-curvature="0"
       inkscape:original-d="m 522.88061,147.95113 c 0,0 -37.0925,20.54498 -51.71347,57.4594 -14.62097,36.91442 -3.44756,135.696 -3.44756,135.696 0,0 -29.06132,31.39898 -40.22159,43.577 -11.16027,12.17802 -21.07949,36.12647 -18.38701,51.71382 2.69248,15.58735 26.54683,42.12563 26.54683,42.12563 0,0 -1.57502,-36.02092 4.48125,-49.02076 6.05627,-12.99984 15.6886,-23.9543 21.83458,-24.13269 6.14598,-0.17839 36.77402,4.5965 36.77402,4.5965 l 36.77402,-5e-4 c 0,0 38.19508,-4.87644 42.25906,-4.596 4.06398,0.28045 14.17513,12.96788 17.71457,25.42131 3.53944,12.45343 2.34183,47.11671 2.34183,47.11671 0,0 28.20775,-21.98268 26.34966,-38.90906 -0.92905,-8.46318 -5.24098,-39.59326 -13.38365,-54.31496 -9.51169,-17.19685 -40.80583,-43.577 -40.80583,-43.577 0,0 11.6653,-97.87513 -1.14919,-134.54681 -12.81449,-36.67168 -45.96752,-58.60859 -45.96752,-58.60859 z"
       inkscape:path-effect="#path-effect5408"
       id="path5406"
       d="m 522.88061,147.95113 c -21.71051,14.3862 -39.68575,34.35868 -51.71347,57.4594 -21.63322,41.54926 -22.94299,93.1018 -3.44756,135.696 -15.32646,12.58322 -28.90408,27.29352 -40.22159,43.577 -5.32182,7.65696 -10.16857,15.70488 -13.58589,24.38086 -3.41733,8.67598 -5.3761,18.02597 -4.80112,27.33296 0.53373,8.63934 3.27345,17.13343 7.88828,24.45643 4.61483,7.32301 11.09522,13.45979 18.65855,17.6692 -4.05579,-16.22221 -2.44866,-33.80281 4.48125,-49.02076 4.59049,-10.08064 11.81624,-19.40776 21.83458,-24.13269 5.89528,-2.78038 12.58645,-3.84766 19.05416,-3.03924 6.46771,0.80842 12.69032,3.48983 17.71986,7.63574 l 36.77402,-5e-4 c 5.34806,-5.51855 12.66037,-9.09336 20.30012,-9.92424 7.63974,-0.83089 15.54958,1.0884 21.95894,5.32824 8.77352,5.80375 14.32314,15.46358 17.71457,25.42131 5.13586,15.07963 5.95708,31.60212 2.34183,47.11671 13.82522,-8.36753 23.71125,-22.96569 26.34966,-38.90906 1.55477,-9.39514 0.68764,-19.10334 -1.82431,-28.28899 -2.51195,-9.18564 -6.63715,-17.87379 -11.55934,-26.02597 -10.36137,-17.16063 -24.36198,-32.11204 -40.80583,-43.577 18.73901,-42.2677 18.30906,-92.60536 -1.14919,-134.54681 -10.5423,-22.7235 -26.4105,-42.95545 -45.96752,-58.60859 z"
       style="fill:#9dd8ff;fill-opacity:1;fill-rule:evenodd;stroke:#9dd8ff;stroke-width:4;stroke-linecap:round;stroke-linejoin:round;stroke-miterlimit:4;stroke-dasharray:none;stroke-opacity:1" />
    <path
       style="fill:#c877cb;fill-opacity:1;fill-rule:evenodd;stroke:#c877cb;stroke-width:4;stroke-linecap:round;stroke-linejoin:round;stroke-miterlimit:4;stroke-dasharray:none;stroke-opacity:1"
       d="m 112.10742,76.642578 c -4.28234,5.832382 -8.21238,11.923343 -11.72461,18.25 C 73.295982,143.68472 80.78334,224.71627 96.933594,255.7793 c 16.150256,31.06303 31.029296,43.66797 31.029296,43.66797 l 36.77344,0 c 0,0 18.2171,-13.55275 34.47656,-44.81836 16.25946,-31.26561 23.07279,-109.53972 -1.15039,-158.587894 -3.29529,-6.672442 -7.01456,-13.131546 -11.10547,-19.347657 -9.95784,8.048536 -23.39906,12.565905 -37.4082,12.572266 -14.02951,-0.01273 -27.48549,-4.549299 -37.44141,-12.623047 z"
       transform="translate(370.78512,110.51811)"
       id="path4199"
       inkscape:connector-curvature="0"
       sodipodi:nodetypes="cszcczsccc" />
    <g
       id="g4219"
       transform="translate(311.42999,-10.342693)">
      <ellipse
         style="fill:#000000;fill-opacity:1;stroke:none;stroke-width:2;stroke-linecap:round;stroke-linejoin:round;stroke-miterlimit:4;stroke-dasharray:none;stroke-dashoffset:0;stroke-opacity:1"
         id="ellipse4221"
         cx="172.5"
         cy="266.50507"
         rx="7.5"
         ry="7.1428571" />
      <ellipse
         ry="7.1428571"
         rx="7.5"
         cy="266.50507"
         cx="244.5"
         id="ellipse4223"
         style="fill:#000000;fill-opacity:1;stroke:none;stroke-width:2;stroke-linecap:round;stroke-linejoin:round;stroke-miterlimit:4;stroke-dasharray:none;stroke-dashoffset:0;stroke-opacity:1" />
      <path
         style="fill:none;fill-rule:evenodd;stroke:#000000;stroke-width:3;stroke-linecap:round;stroke-linejoin:round;stroke-miterlimit:4;stroke-dasharray:none;stroke-opacity:1"
         d="m 225.57524,278.70576 c -1.42065,14.7127 -32.43016,15.2873 -34.28572,0"
         id="path4225"
         inkscape:connector-curvature="0"
         sodipodi:nodetypes="cc" />
      <ellipse
         style="fill:#ffaaaa;fill-opacity:1;stroke:none;stroke-width:3;stroke-linecap:round;stroke-linejoin:round;stroke-miterlimit:4;stroke-dasharray:none;stroke-dashoffset:0;stroke-opacity:1"
         id="ellipse4227"
         cx="158.15701"
         cy="284.28464"
         rx="5.8895893"
         ry="3.016619" />
      <ellipse
         ry="3.016619"
         rx="5.8895893"
         cy="284.28464"
         cx="252.15701"
         id="ellipse4229"
         style="fill:#ffaaaa;fill-opacity:1;stroke:none;stroke-width:3;stroke-linecap:round;stroke-linejoin:round;stroke-miterlimit:4;stroke-dasharray:none;stroke-dashoffset:0;stroke-opacity:1" />
    </g>
    <path
       style="fill:#f9ff98;fill-opacity:1;fill-rule:evenodd;stroke:#f9ff98;stroke-width:4;stroke-linecap:round;stroke-linejoin:round;stroke-miterlimit:4;stroke-dasharray:none;stroke-opacity:1"
       d="m 496.90576,411.81909 c -7.62978,12.17612 -12.14506,26.28638 -13.00158,40.62994 -1.68542,28.22445 11.55757,56.91758 34.12915,73.94649 20.31692,-19.15965 31.37496,-47.72624 29.25355,-75.57169 -1.01678,-13.34624 -4.92446,-26.46487 -11.37638,-38.19214 l -39.00474,-0.8126 z"
       id="path4272"
       inkscape:path-effect="#path-effect4274"
       inkscape:original-d="m 496.90576,411.81909 c 0,0 -14.26978,19.98519 -13.00158,40.62994 1.2682,20.64475 34.12915,73.94649 34.12915,73.94649 0,0 28.44957,-55.43997 29.25355,-75.57169 0.80398,-20.13172 -11.37638,-38.19214 -11.37638,-38.19214 z"
       inkscape:connector-curvature="0"
       sodipodi:nodetypes="czczcc" />
    <path
       sodipodi:nodetypes="czczcc"
       inkscape:connector-curvature="0"
       inkscape:original-d="m 496.90576,411.81909 c 0,0 -0.4556,2.10802 0.8126,22.75277 1.2682,20.64475 20.31497,30.06616 20.31497,30.06616 0,0 16.26059,-7.49665 17.06457,-27.62837 0.80398,-20.13172 0.8126,-24.37796 0.8126,-24.37796 z"
       inkscape:path-effect="#path-effect4278"
       id="path4276"
       d="m 496.90576,411.81909 c -1.35408,7.52633 -1.07494,15.34221 0.8126,22.75277 3.04546,11.9566 10.35815,22.77939 20.31497,30.06616 8.26141,-7.24183 14.28785,-16.99894 17.06457,-27.62837 2.07197,-7.93163 2.35178,-16.32596 0.8126,-24.37796 l -39.00474,-0.8126 z"
       style="fill:#ffec98;fill-opacity:1;fill-rule:evenodd;stroke:#ffec98;stroke-width:4;stroke-linecap:round;stroke-linejoin:round;stroke-miterlimit:4;stroke-dasharray:none;stroke-opacity:1" />
    <rect
       style="fill:#999999;fill-opacity:1;stroke:none;stroke-width:4;stroke-linecap:round;stroke-linejoin:round;stroke-miterlimit:4;stroke-dasharray:none;stroke-dashoffset:0;stroke-opacity:1"
       id="rect4266"
       width="52.006321"
       height="16.251974"
       x="490.84277"
       y="402.94351"
       ry="8.1259871" />
  </g>
</svg>
