<?xml version="1.0" encoding="UTF-8" standalone="no"?>
<svg xmlns:rdf="http://www.w3.org/1999/02/22-rdf-syntax-ns#" xmlns="http://www.w3.org/2000/svg" height="428.61mm" width="461.66mm" version="1.1" xmlns:cc="http://creativecommons.org/ns#" xmlns:dc="http://purl.org/dc/elements/1.1/" viewBox="0 0 1635.8172 1518.6849">
<g transform="translate(392.19 226.98)">
<path style="enable-background:new" fill="#80a" d="m-49.248 1291.6c-13.202-0.4201-31.628-1.4613-32.921-1.8604-0.74-0.2283 2.3236-4.119 13.982-17.757 66.56-77.863 136.7-132.74 218.74-171.15 17.243-8.0725 30.398-13.719 60.45-25.948 40.283-16.392 53.241-22.308 68.794-31.406 39.019-22.826 59.403-52.821 68.873-101.34 3.0724-15.744 5.5738-40.972 5.5816-56.293l0.003-3.7931-5.475-2.1832c-16.185-6.4538-34.122-14.021-50.008-21.097-5.0229-2.2375-9.1693-4.0313-9.2143-3.9864-0.045 0.045-1.4832 3.5854-3.1961 7.8675-51.252 128.13-185.75 252.19-382.71 353.01-18.154 9.2929-58.747 28.282-59.292 27.737-0.3065-0.3065 2.8611-18.804 4.7362-27.658 16.242-76.691 54.08-140.3 119.66-201.16 20.638-19.152 38.394-33.825 82.945-68.539 72.388-56.406 98.092-81.544 119.18-116.55 4.5038-7.476 13.867-26.98 13.867-28.885 0-0.1019-2.5313-1.6971-5.625-3.545-21.898-13.079-43.331-27.106-63.375-41.475-6.3432-4.5471-19.831-14.595-20.929-15.591-0.8573-0.7778-0.8926-0.733-2.4481 3.0953-37.942 93.386-140.92 206.16-295.07 323.14-36.906 28.007-78.791 57.503-114.6 80.704-12.982 8.4107-13.95 8.9921-13.95 8.374 0-0.3141 0.1392-3.6534 0.3094-7.4206 5.2358-115.96 37.678-194.83 104.69-254.54 16.853-15.016 30.906-25.683 66.15-50.213 24.001-16.705 33.867-23.869 43.882-31.862 51.918-41.438 74.246-82.923 79.328-147.39 0.5167-6.5553 0.5167-33.903 0-41.25-0.528-7.5078-1.218-15.555-1.69-19.71l-0.3987-3.51-2.5774-4.0371c-10.862-17.013-22.38-38.414-30.057-55.843-1.5989-3.63-2.9574-6.655-3.019-6.7221-0.1926-0.21015-12.886 4.4476-19.168 7.0334-51.623 21.25-82.698 51.188-100.57 96.889-7.3987 18.921-11.517 35.284-20.161 80.1-10.339 53.604-17.16 77.588-29.905 105.14-26.167 56.574-72.466 101.3-142.71 137.85-6.0572 3.1523-5.5117 3.7338-4.2358-4.5154 7.2826-47.086 19.641-107.6 32.407-158.68 63.315-253.35 151.8-385.28 252.9-377.07 2.1503 0.17448 2.518 0.13719 2.518-0.25515 0-0.25272-0.1338-1.79-0.2973-3.4162-4.1576-41.346-0.5291-91.779 9.9364-138.11 0.7332-3.2458 1.5873-8.4568 2.2372-13.65 30.195-241.29 233.76-458.2 457.62-487.65 141.07-18.555 273.57 36.786 383.56 160.2 116.41 130.62 170.02 263.34 165.66 410.1l-0.2275 7.65 8.6275 6.4497c100.35 75.021 187.9 161.39 242.99 239.74 70.77 100.64 93.334 194.82 65.444 273.17-0.9668 2.7159-50.976 134.28-51.092 134.41-0.035 0.04 0-5.6299 0.07-12.6 1.0522-99.206-23.634-176.48-78.302-245.1-19.292-24.215-36.333-41.915-81.087-84.223-30.404-28.742-42.918-41.09-56.249-55.507-36.026-38.96-59.258-76.034-73.949-118.01-0.8599-2.4571-1.6355-4.3471-1.7235-4.2-0.088 0.14709-0.5858 1.6174-1.1062 3.2674-4.644 14.725-13.174 37.524-20.231 54.075-2.941 6.8973-2.8426 6.1931-1.8243 13.06 6.522 43.979 24.994 85.091 56.778 126.37 16.088 20.891 30.024 36.527 67.117 75.3 30.351 31.726 40.178 42.241 53.413 57.154 67.671 76.252 108.72 150.14 133.14 239.7 2.2748 8.3396 2.5906 7.4306-2.0871 6.0081-85.086-25.875-184.45-101.24-258.29-195.91-43.63-55.936-88.937-133.73-114.31-196.27-0.7547-1.8602-0.2344-2.4101-6.4574 6.8237-16.263 24.131-31.438 44.724-50.89 69.06l-7.002 8.7596 0.3172 5.1904c3.2596 53.349 22.825 89.102 69.755 127.47 14.84 12.133 25.676 20.006 67.05 48.717 95.92 66.563 150.67 114.16 211.52 183.9 16.746 19.192 48.255 58.174 47.572 58.857-1.1266 1.1266-48.074-8.1496-73.909-14.604-183.87-45.932-325.59-138.29-397.81-259.25-8.2231-13.772-22.572-41.217-22.572-43.173 0-0.5926-0.5632-0.1024-7.0135 6.1032-12.402 11.932-25.815 24.414-37.913 35.283-4.267 3.8336-5.474 5.0799-5.474 5.652 0 5.3514 4.3852 36.064 7.0578 49.43 14.638 73.209 42.952 117.04 94.547 146.36 20.7 11.763 39.885 19.431 90.995 36.373 48.684 16.137 66.175 22.478 89.1 32.3 50.866 21.793 95.814 49.762 134.82 83.888l3.2699 2.8609-0.9403 0.3837c-13.821 5.6396-60.515 15.224-90.2 18.515-228.61 25.343-378.47-96.462-424.07-344.68-1.4546-7.9172 0.25506-6.4549-11.526-9.8586-5.445-1.5731-12.125-3.5338-14.844-4.3571s-4.968-1.4715-4.9977-1.4406c-0.0297 0.031-0.27357 2.3513-0.54186 5.1563-21.3 223.86-184.71 353.56-461.32 366.26-6.4708 0.2988-43.746 0.597-49.95 0.3995zm565.74-1083.2c29.499-4.1932 53.136-29.626 60.045-64.607 0.9053-4.5834 0.8637-4.9857-0.3598-3.4859-26.337 32.282-63.385 52.853-99.63 55.318-2.2845 0.15537-4.2193 0.34818-4.2996 0.42843-0.29751 0.29751 7.3436 5.0803 10.838 6.7837 10.414 5.0765 22.578 7.102 33.406 5.5628zm-182.19-5.5628c8.8633-1.0118 18.345-4.3587 25.786-9.1021l2.086-1.3298-1.486-0.20688c-33.105-4.6089-69.276-26.42-99.23-59.836-2.387-2.6629-2.3891-2.6577-1.3803 3.3256 7.0638 41.894 39.377 71.128 74.224 67.149zm135.88-14.612c6.0147-4.0331 14.204-9.8687 26.555-18.922 39.546-28.988 54.94-38.136 76.363-45.381 5.9301-2.0054 5.4313-1.2875 4.9654-7.1471-4.4703-56.222-51.545-91.558-94.515-70.946-48.388 23.211-59.427 100.71-20.26 142.25 3.1312 3.3206 2.1938 3.3002 6.8918 0.15zm-96.54-5.87c39.28-40.88 28.18-119.3-20.14-142.28-44.32-21.083-93.41 17.852-94.71 75.13l-0.0844 3.7025 4.35 1.3031c21.946 6.5744 39.778 16.823 77.7 44.656 31.918 23.426 28.79 21.763 32.891 17.494z"/>
</g>
</svg>
