<?xml version="1.0" encoding="UTF-8" standalone="no"?>
<svg xmlns:rdf="http://www.w3.org/1999/02/22-rdf-syntax-ns#" xmlns="http://www.w3.org/2000/svg" height="212mm" width="219.88mm" version="1.1" xmlns:cc="http://creativecommons.org/ns#" xmlns:dc="http://purl.org/dc/elements/1.1/" viewBox="0 0 779.09227 751.19559">
<g transform="translate(80.849 -166.76)">
<g>
<path d="m-70.849 446.39c-38.891-143.74 39.676-282.47 165.77-279.58 126.1 2.89 168.7 68.55 213.78 133.71 45.07-65.16 87.67-130.82 213.77-133.71s204.66 135.84 165.77 279.58c-40.16 148.42-267.94 358.9-379.54 471.57-111.61-112.67-339.39-323.15-379.55-471.57z" fill="#f00"/>
<path d="m-13.917 460.78c-33.057-122.17 33.725-240.09 140.91-237.64 107.18 2.46 143.39 58.27 181.71 113.65 38.31-55.38 74.52-111.19 181.7-113.65 107.18-2.45 173.97 115.47 140.91 237.64-34.13 126.16-227.75 305.07-322.61 400.84-94.87-95.77-288.48-274.68-322.62-400.84z" fill="#ff9800"/>
<path d="m43.015 475.18c-27.223-100.61 27.773-197.73 116.04-195.71 88.269 2.0205 118.09 47.983 149.64 93.595 31.551-45.612 61.371-91.574 149.64-93.595 88.268-2.0206 143.27 95.091 116.04 195.71-28.11 103.89-187.56 251.23-265.68 330.1-78.13-78.87-237.58-226.21-265.68-330.1z" fill="#ff0"/>
<path d="m99.947 489.58c-21.39-79.06 21.823-155.36 91.173-153.77 69.354 1.5876 92.784 37.701 117.57 73.539 24.79-35.838 48.22-71.951 117.57-73.539 69.354-1.5876 112.57 74.714 91.176 153.77-22.08 81.63-147.36 197.39-208.74 259.36-61.39-61.97-186.67-177.73-208.75-259.36z" fill="#009800"/>
<path d="m156.88 503.97c-15.556-57.494 15.87-112.99 66.309-111.83 50.439 1.1546 67.479 27.419 85.509 53.483 18.029-26.064 35.069-52.328 85.508-53.483 50.439-1.1546 81.866 54.338 66.31 111.83-16.07 59.37-107.18 143.56-151.82 188.63-44.64-45.07-135.76-129.26-151.82-188.63z" fill="#00f"/>
<path d="m213.81 518.37c-9.7226-35.934 9.919-70.617 41.443-69.895 31.525 0.72161 42.175 17.137 53.443 33.427 11.268-16.29 21.918-32.705 53.443-33.427 31.524-0.72164 51.166 33.961 41.444 69.895-10.039 37.105-66.986 89.726-94.886 117.89-27.901-28.167-84.847-80.788-94.886-117.89z" fill="#980098"/>
</g>
</g>
</svg>
