<?xml version="1.0" encoding="utf-8"?>
<!-- Generator: Adobe Illustrator 20.1.0, SVG Export Plug-In . SVG Version: 6.00 Build 0)  -->
<svg version="1.1" id="Layer_1" xmlns="http://www.w3.org/2000/svg" xmlns:xlink="http://www.w3.org/1999/xlink" x="0px" y="0px"
	 viewBox="0 0 456 465" style="enable-background:new 0 0 456 465;" xml:space="preserve">
<style type="text/css">
	.st0{fill:#FBE800;}
	.st1{fill:#D2C02A;}
	.st2{fill:#FFFFFF;}
	.st3{fill:#943849;}
	.st4{fill:#DD879E;}
	.st5{fill:#9A8A31;}
	.st6{fill:#36111C;}
</style>
<g>
	<path class="st0" d="M136.3,292.1c0,0-18.6-27.3-28.2-29.7c-9.6-2.3-30.2-8.3-30.2-8.3l-6.5-19.3c0,0-8.9,6-8.9,6.7
		s8.3,16.6,8.3,16.6l-19.3,4.3l6.3,11.8l14.8-10.8l-11.2,14.7l3,9.2l11.2-13.2l-5.3,13.4h13.6l5.9-18.7c0,0,20.1,19.2,23.6,23.2
		c3.5,4,8.9,12.7,8.9,12.7"/>
	<path d="M136.3,292.1c-1.8-2.4-3.7-4.8-5.5-7.2c-1.9-2.4-3.8-4.7-5.8-7c-2-2.3-4-4.5-6.2-6.6c-2.1-2.1-4.4-4.2-6.8-5.8
		c-1.2-0.8-2.5-1.5-3.8-1.9c-0.3-0.1-0.7-0.2-1-0.3l-1.1-0.3l-2.2-0.5c-3-0.7-5.9-1.5-8.8-2.2c-5.9-1.5-11.7-3.1-17.6-4.7l-0.7-0.2
		l-0.3-0.7l-6.7-19.3l2.6,0.9c-2,1.4-4,2.8-6,4.3c-0.5,0.4-1,0.7-1.4,1.1l-0.6,0.5l-0.2,0.2c0,0,0,0,0,0c0,0,0.1-0.1,0.1-0.1
		l0.1-0.1c0-0.1,0.1-0.2,0.1-0.3c0-0.1,0-0.2,0-0.3l0-0.1c0,0-0.1-0.7,0-0.4l0,0c0.1,0.4,0.2,0.3,0.2,0.5l0.4,0.8l0.8,1.6
		c2.2,4.4,4.5,8.8,6.8,13.2l1.1,2.2l-2.4,0.6l-19.3,4.4l1.3-2.8l6.4,11.8l-2.9-0.7l14.8-10.8l10.9-8l-8.2,10.8l-11.2,14.7l0.3-1.7
		l2.9,9.2l-3.2-0.6l11.3-13.1l6.9-8l-4,9.7l-5.4,13.4l-1.5-2.2l13.6,0.2l-1.4,1l6.2-18.6l0.6-1.8l1.3,1.3c2.9,2.9,5.8,5.7,8.6,8.6
		l8.5,8.7c1.4,1.5,2.8,2.9,4.2,4.4c0.7,0.7,1.4,1.5,2,2.3c0.6,0.8,1.3,1.6,1.9,2.4c1.2,1.7,2.3,3.4,3.4,5.1c1.1,1.7,2.1,3.5,3.1,5.2
		c-2.2-3.4-4.6-6.7-7.1-9.9c-0.6-0.8-1.2-1.6-1.9-2.3c-0.7-0.7-1.4-1.4-2.1-2.1c-1.4-1.4-2.9-2.8-4.4-4.2l-8.9-8.3l-8.9-8.2l1.9-0.5
		l-5.6,18.8l-0.3,1l-1.1,0l-13.6,0.2l-2.3,0l0.8-2.2l5.2-13.5l2.9,1.8l-11.1,13.2l-2.1,2.6l-1-3.2l-3-9.2l-0.3-0.9l0.6-0.8L71,262.3
		l2.7,2.8L59,275.9l-1.9,1.4l-1.1-2l-6.3-11.8l-1.2-2.3l2.5-0.6l19.3-4.3l-1.3,2.7c-2.2-4.4-4.5-8.8-6.6-13.3l-0.8-1.7l-0.4-0.9
		c-0.2-0.4-0.4-1-0.5-1.3l0,0c0,0.3,0-0.4,0-0.4l0-0.1c0-0.1,0-0.2,0.1-0.4c0-0.1,0.1-0.2,0.1-0.3l0.1-0.1l0,0
		c0.1-0.1,0.2-0.2,0.2-0.3c0.1-0.1,0.2-0.2,0.3-0.3c0.2-0.2,0.3-0.3,0.4-0.4c0.3-0.2,0.5-0.4,0.8-0.6c0.5-0.4,1-0.8,1.5-1.2
		c2-1.5,4.1-2.9,6.2-4.3l1.9-1.3l0.7,2.1l6.3,19.4l-1-1l17.4,5.2c2.9,0.9,5.8,1.7,8.7,2.5l2.2,0.6l1.1,0.3c0.4,0.1,0.7,0.2,1.1,0.3
		c1.6,0.6,3,1.4,4.2,2.4c2.5,1.9,4.7,4.1,6.7,6.3c2.1,2.3,4,4.6,5.9,7c1.9,2.4,3.7,4.8,5.5,7.3C132.9,287.1,134.6,289.6,136.3,292.1
		z"/>
</g>
<g>
	<path class="st0" d="M299.7,129.7c0,0-37-8-87-5.5s-65.5,20-65.5,20s-4.4,17.7-14.2,53c0.9,2.1,1.8,4.3,2.4,6.6
		c4.3,15.8,0.5,37.5-14.1,47c-1,0.6-2,1.2-3,1.7c-8.8,52.7,12.4,94.3,12.4,94.3s-7-15.5,54.5-18.5s70.1,6.4,70.1,6.4
		s-5.6-25.9,1.4-87.9S299.7,129.7,299.7,129.7z"/>
	<g>
		<path d="M299.7,129.7c-3.2-0.6-6.4-1.1-9.7-1.6c-3.2-0.5-6.5-0.9-9.7-1.2c-3.3-0.3-6.5-0.7-9.8-1c-3.3-0.3-6.5-0.5-9.8-0.7
			c-3.3-0.2-6.5-0.4-9.8-0.5c-3.3-0.2-6.5-0.2-9.8-0.2c-3.3-0.1-6.5,0-9.8,0l-9.8,0.2c-3.3,0.2-6.5,0.3-9.8,0.5
			c-3.3,0.2-6.5,0.5-9.7,0.8c-3.2,0.3-6.5,0.8-9.7,1.3c-3.2,0.5-6.4,1.1-9.6,1.9c-6.3,1.5-12.5,3.4-18.5,5.9c-3,1.3-5.9,2.7-8.6,4.3
			c-1.4,0.8-2.7,1.7-4,2.6c-1.3,0.9-2.6,2-3.5,3l0.3-0.6c-2.2,8.9-4.5,17.7-6.8,26.6c-2.3,8.8-4.7,17.7-7.1,26.5l-0.1-1.1
			c1.1,2.5,2,5,2.7,7.7c0.2,0.6,0.3,1.3,0.5,2c0.1,0.7,0.3,1.3,0.4,2c0.2,1.3,0.4,2.7,0.5,4c0.5,5.4,0.1,10.8-1,16.1
			c-0.3,1.3-0.6,2.6-1,3.9c-0.4,1.3-0.8,2.6-1.4,3.8c-0.5,1.3-1.1,2.5-1.7,3.7c-0.7,1.2-1.3,2.4-2.1,3.5c-0.7,1.1-1.6,2.2-2.5,3.3
			c-0.9,1-1.9,2-2.9,3c-1,0.9-2.1,1.8-3.3,2.6c-1.1,0.8-2.4,1.5-3.6,2.1l1-1.3c-0.3,2-0.6,3.9-0.8,5.9c-0.2,2-0.5,3.9-0.6,5.9
			c-0.2,2-0.3,4-0.4,5.9c-0.1,2-0.1,4-0.2,6c0,2,0,4,0.1,6c0,2,0.1,4,0.3,6c0.1,2,0.3,4,0.5,5.9l0.3,3l0.4,3
			c1.1,7.9,2.7,15.7,4.8,23.3c0.5,1.9,1.1,3.8,1.7,5.7c0.6,1.9,1.2,3.8,1.9,5.6c0.7,1.9,1.4,3.7,2.1,5.5c0.7,1.8,1.6,3.7,2.4,5.4
			l-3.6,1.7c-0.1-0.2-0.1-0.2-0.1-0.3c0-0.1,0-0.1-0.1-0.2c0-0.1-0.1-0.3-0.1-0.4c-0.1-0.3-0.1-0.5-0.1-0.8c0-0.5,0-1,0-1.4
			c0.1-0.9,0.4-1.8,0.8-2.6c0.8-1.6,1.9-2.8,3.1-3.8c2.4-2,5-3.3,7.7-4.4c2.7-1.1,5.4-1.9,8.1-2.6c2.7-0.7,5.5-1.3,8.3-1.8
			c1.4-0.2,2.8-0.4,4.1-0.7l4.2-0.6c2.8-0.3,5.5-0.6,8.3-0.9c2.8-0.2,5.6-0.4,8.3-0.6l4.2-0.2l4.1-0.2c2.8-0.1,5.5-0.2,8.3-0.3
			l8.3-0.1l8.3,0.1c2.8,0.1,5.6,0.2,8.3,0.3c2.8,0.2,5.6,0.3,8.3,0.6c2.8,0.2,5.6,0.6,8.3,1c1.4,0.3,2.8,0.5,4.2,0.8
			c1.4,0.3,2.8,0.6,4.1,1c1.4,0.4,2.8,0.8,4.1,1.3c0.7,0.3,1.4,0.6,2,0.9c0.3,0.2,0.7,0.4,1,0.6c0.2,0.1,0.3,0.2,0.5,0.4
			c0.2,0.2,0.3,0.2,0.6,0.5l-3,1.5c-0.4-2.3-0.7-4.5-1-6.8c-0.2-2.2-0.4-4.5-0.6-6.7c-0.3-4.5-0.4-9-0.5-13.4l0-6.7l0.1-6.7
			c0.2-4.5,0.3-8.9,0.6-13.4c0.1-2.2,0.3-4.5,0.4-6.7l0.5-6.7c0.4-4.4,0.8-8.9,1.3-13.3l0.7-6.7c0.2-2.3,0.6-4.4,0.9-6.6
			c0.3-2.2,0.7-4.4,1.1-6.6c0.4-2.2,0.8-4.4,1.3-6.6c0.5-2.2,0.9-4.4,1.5-6.5l0.8-3.3l0.9-3.2c1.1-4.3,2.5-8.6,3.8-12.8
			c1.4-4.2,2.8-8.5,4.4-12.6c1.6-4.2,3.2-8.3,5-12.4c3.5-8.2,7.3-16.3,11.4-24.2c2-4,4.2-7.9,6.4-11.7
			C295,137.3,297.3,133.4,299.7,129.7z M299.7,129.7c-2.4,3.8-4.5,7.7-6.7,11.6c-2.1,3.9-4.1,7.9-6.1,11.9
			c-3.9,8-7.6,16.1-10.9,24.3c-1.6,4.1-3.2,8.3-4.7,12.5c-1.5,4.2-2.8,8.4-4.2,12.7c-1.3,4.3-2.5,8.5-3.5,12.8l-0.8,3.2l-0.7,3.2
			c-0.5,2.2-0.9,4.3-1.4,6.5c-0.5,2.2-0.8,4.4-1.2,6.5c-0.3,2.2-0.7,4.4-1,6.6c-0.3,2.2-0.6,4.4-0.8,6.6l-0.6,6.6
			c-0.5,4.4-0.7,8.9-1.1,13.3l-0.4,6.6c-0.2,2.2-0.3,4.4-0.4,6.7c-0.2,4.4-0.3,8.9-0.4,13.3l0,6.7l0.1,6.6c0.1,4.4,0.3,8.9,0.6,13.3
			c0.1,2.2,0.3,4.4,0.6,6.6c0.2,2.2,0.5,4.4,0.9,6.4l-3,1.5c0.1,0.1-0.1-0.1-0.2-0.1c-0.1-0.1-0.2-0.1-0.3-0.2
			c-0.2-0.2-0.5-0.3-0.8-0.4c-0.5-0.3-1.1-0.5-1.7-0.8c-1.2-0.5-2.5-0.9-3.8-1.2c-1.3-0.4-2.6-0.6-3.9-0.9c-1.3-0.3-2.7-0.5-4-0.7
			c-2.7-0.4-5.4-0.8-8.1-1c-2.7-0.3-5.5-0.4-8.2-0.6c-2.7-0.1-5.5-0.2-8.2-0.3l-8.3,0l-8.2,0.1c-2.7,0-5.5,0.2-8.3,0.3l-4.1,0.2
			l-4.1,0.2c-2.7,0.1-5.5,0.4-8.2,0.6c-2.7,0.2-5.5,0.5-8.2,0.9l-4.1,0.6l-4,0.7c-2.7,0.5-5.4,1-8,1.7c-2.6,0.7-5.2,1.5-7.6,2.5
			c-2.4,1-4.8,2.2-6.6,3.8c-0.9,0.8-1.7,1.7-2.1,2.6c-0.2,0.4-0.4,0.9-0.4,1.3c0,0.2,0,0.4,0,0.6c0,0.1,0,0.2,0,0.3c0,0,0,0.1,0,0.1
			c0,0,0,0,0,0s0,0,0,0l-3.6,1.7c-0.9-1.9-1.7-3.8-2.5-5.7c-0.8-1.9-1.5-3.8-2.2-5.7c-0.7-1.9-1.3-3.8-1.9-5.8
			c-0.6-1.9-1.2-3.9-1.7-5.8c-2.2-7.8-3.8-15.8-4.8-23.9l-0.4-3l-0.3-3c-0.2-2-0.3-4-0.5-6.1c-0.1-2-0.2-4.1-0.2-6.1
			c-0.1-2,0-4.1,0-6.1c0.1-2,0.1-4.1,0.2-6.1c0.1-2,0.2-4.1,0.4-6.1c0.2-2,0.4-4,0.7-6.1c0.2-2,0.6-4,0.9-6l0.1-0.9l0.9-0.4
			c1.1-0.5,2.2-1.1,3.2-1.8c1-0.7,2-1.4,2.9-2.2c0.9-0.8,1.8-1.7,2.6-2.6c0.8-0.9,1.6-1.9,2.2-2.9c0.7-1,1.3-2.1,1.9-3.2
			c0.6-1.1,1.1-2.2,1.6-3.4c0.5-1.1,0.9-2.3,1.3-3.5c0.4-1.2,0.7-2.4,1-3.6c1.1-4.9,1.4-10,1-15c-0.1-1.3-0.3-2.5-0.5-3.7
			c-0.2-1.3-0.4-2.4-0.8-3.7c-0.6-2.4-1.4-4.8-2.5-7.1l-0.3-0.6l0.2-0.6l3.7-13.2l3.7-13.2c2.4-8.8,4.8-17.6,7.1-26.5l0.1-0.4
			l0.2-0.2c1.3-1.4,2.6-2.3,4-3.3c1.4-1,2.8-1.9,4.2-2.7c2.9-1.7,5.9-3.1,9-4.4c6.1-2.5,12.5-4.4,19-5.8c3.2-0.7,6.5-1.3,9.7-1.8
			c3.3-0.5,6.5-0.9,9.8-1.2c3.3-0.3,6.6-0.5,9.8-0.7c3.3-0.1,6.6-0.2,9.8-0.3l9.8,0c3.3,0.1,6.6,0.1,9.8,0.2
			c3.3,0.1,6.6,0.2,9.8,0.4c3.3,0.2,6.5,0.4,9.8,0.7c3.3,0.3,6.5,0.6,9.8,0.9l4.9,0.5l4.9,0.6c3.2,0.5,6.5,0.9,9.7,1.5
			C293.3,128.4,296.5,129,299.7,129.7z"/>
	</g>
</g>
<g>
	<path class="st1" d="M339.5,161.6c-12.8,2.3-20.8-8.9-20.5-20.5c-9-5.4-19.3-11.3-19.3-11.3s-39.9,61.7-43,91.5
		c-3.1,29.8-3.4,73-3.2,83s4.4,31.4,4.4,31.4s2.9-10.4,22.4-9.9c12.8,0.3,15.9,0.7,16.5,0.8c0.3-2.2,4.5-30.4,11.4-56.9
		c-1.6-2-3.1-4.2-4.3-6.5c-9.5-18-0.2-37.7,16.7-46.8c6.5-3.5,14-6.1,21.7-7.4c11.8-12.6,21.5-23.2,21.5-23.2s-11-13.6-21.1-24.9
		C341.6,161.1,340.6,161.4,339.5,161.6z"/>
	<path d="M339.5,161.6c-0.7,0.1-1.4,0.2-2.1,0.3c-0.7,0-1.4,0.1-2.1,0c-0.7,0-1.4-0.1-2.1-0.2c-0.7-0.1-1.4-0.3-2-0.5
		c-1.3-0.4-2.6-1-3.8-1.8c-0.6-0.4-1.1-0.8-1.7-1.3c-0.5-0.5-1-1-1.5-1.5c-1.9-2.1-3.3-4.6-4.1-7.2c-0.9-2.7-1.3-5.5-1.2-8.3l0,0.1
		l-19.4-11.2l0.3-0.1c-4.8,7.6-9.4,15.4-13.8,23.3c-4.4,7.9-8.6,15.8-12.6,23.9c-2,4-3.9,8.1-5.7,12.3c-1.8,4.1-3.5,8.3-5,12.5
		c-1.5,4.2-2.9,8.5-3.8,12.8c-0.5,2.2-0.9,4.3-1.1,6.5l-0.6,6.7c-0.3,4.5-0.6,9-0.8,13.5c-0.2,4.5-0.4,9-0.6,13.5
		c-0.2,4.5-0.2,9-0.4,13.5c-0.1,4.5-0.2,9-0.2,13.5c0,4.5-0.1,9-0.1,13.5c0.1,4.5-0.1,9,0.3,13.3c0.4,4.4,1.1,8.9,1.8,13.3
		c0.7,4.4,1.5,8.9,2.3,13.3l-3.8-0.1c0.1-0.4,0.2-0.6,0.3-0.9c0.1-0.3,0.2-0.5,0.4-0.7c0.3-0.5,0.5-0.9,0.8-1.3
		c0.6-0.8,1.3-1.6,2-2.3c1.5-1.4,3.2-2.5,4.9-3.3c0.9-0.4,1.8-0.8,2.7-1.1c0.9-0.3,1.8-0.6,2.7-0.8c0.9-0.2,1.8-0.4,2.8-0.5
		c0.9-0.1,1.9-0.2,2.8-0.3c0.9-0.1,1.8-0.1,2.8-0.1c0.9,0,1.9,0,2.7,0l5.3,0.2l5.3,0.3l2.7,0.2l1.4,0.1l0.7,0.1
		c0.3,0,0.5,0.1,0.9,0.2l-2.3,1.4c0.8-4.8,1.6-9.6,2.4-14.3c0.9-4.8,1.8-9.5,2.8-14.3c2-9.5,4.2-18.9,6.7-28.3l0.2,1
		c-1.1-1.4-2.2-3-3.1-4.6c-0.5-0.8-0.9-1.6-1.3-2.5c-0.4-0.8-0.8-1.6-1.1-2.5c-0.7-1.7-1.3-3.5-1.7-5.3c-0.4-1.8-0.7-3.6-0.8-5.5
		c-0.2-3.7,0.3-7.4,1.3-10.9c0.5-1.8,1.2-3.5,2-5.1c0.8-1.7,1.7-3.2,2.7-4.8c1-1.5,2.1-3,3.4-4.3c1.2-1.3,2.5-2.6,3.9-3.8
		c1.4-1.2,2.8-2.3,4.4-3.3c1.5-1,3.1-1.9,4.7-2.7c6.5-3.2,13.4-5.4,20.5-6.6l-0.2,0.1l10.9-11.5c3.6-3.9,7.2-7.7,10.8-11.6l0,0.1
		c-6.8-8.5-13.8-16.8-21.1-24.9l0,0C341.6,161.1,340.6,161.4,339.5,161.6z M339.5,161.6c1-0.2,2.1-0.5,3.1-0.8l0,0l0,0
		c7.3,8.1,14.3,16.4,21.2,24.8l0,0.1l0,0.1l-10.6,11.7l-10.7,11.7l-0.1,0.1l-0.1,0c-7,1.3-13.9,3.6-20.2,6.9
		c-1.6,0.8-3.1,1.7-4.6,2.7c-1.5,1-2.9,2.1-4.2,3.3c-1.3,1.2-2.6,2.4-3.7,3.8c-1.2,1.3-2.2,2.7-3.2,4.2c-1,1.5-1.8,3-2.5,4.6
		c-0.7,1.6-1.3,3.2-1.8,4.9c-0.9,3.4-1.3,6.9-1,10.4c0.1,1.7,0.4,3.5,0.8,5.1c0.4,1.7,1,3.3,1.7,4.9c0.3,0.8,0.7,1.6,1.1,2.4
		c0.4,0.7,0.8,1.5,1.3,2.2c0.9,1.5,1.9,2.9,3.1,4.2l0.4,0.5l-0.1,0.6c-2.3,9.4-4.3,18.8-6,28.3c-0.9,4.7-1.7,9.5-2.5,14.3
		c-0.8,4.8-1.6,9.5-2.2,14.3l-0.2,1.7l-2-0.3l-0.4-0.1l-0.6-0.1L294,328l-2.6-0.1l-5.3-0.2l-5.3-0.1c-0.9,0-1.7,0-2.6,0
		c-0.9,0-1.7,0.1-2.5,0.1c-0.8,0.1-1.7,0.2-2.5,0.3c-0.8,0.1-1.7,0.3-2.5,0.5c-0.8,0.2-1.6,0.4-2.4,0.7c-0.8,0.3-1.5,0.6-2.2,0.9
		c-1.4,0.7-2.8,1.6-3.9,2.6c-0.6,0.5-1.1,1.1-1.5,1.7c-0.2,0.3-0.4,0.6-0.6,0.9c-0.1,0.2-0.2,0.3-0.2,0.5c-0.1,0.1-0.1,0.4-0.1,0.4
		l-3.8-0.1c-0.9-4.5-1.7-8.9-2.4-13.4c-0.7-4.5-1.3-9-1.7-13.6c-0.2-2.3-0.3-4.7-0.3-6.9c0-2.3,0-4.5,0-6.8c0.1-4.5,0.1-9,0.2-13.6
		c0.1-4.5,0.2-9,0.4-13.5c0.2-4.5,0.4-9,0.6-13.5c0.2-4.5,0.5-9,0.9-13.5c0.3-4.5,0.7-9,1.1-13.5l0.7-6.7c0.3-2.3,0.7-4.6,1.3-6.8
		c1.1-4.4,2.6-8.8,4.2-13c1.6-4.2,3.4-8.4,5.3-12.5c1.9-4.1,3.9-8.2,6-12.2c4.1-8,8.5-15.9,13.1-23.7c4.6-7.8,9.3-15.5,14.2-23.1
		l0.1-0.2l0.2,0.1l19.3,11.4l0,0l0,0c-0.1,2.8,0.3,5.6,1.2,8.2c0.9,2.6,2.2,5.1,4.1,7.2c0.5,0.5,1,1,1.5,1.5
		c0.5,0.5,1.1,0.9,1.7,1.3c1.2,0.8,2.4,1.4,3.7,1.8c0.7,0.2,1.3,0.4,2,0.5c0.7,0.1,1.4,0.2,2.1,0.2c0.7,0,1.4,0,2.1,0
		C338.1,161.8,338.8,161.7,339.5,161.6z"/>
</g>
<g>
	
		<ellipse transform="matrix(0.3847 -0.9231 0.9231 0.3847 -66.3501 267.686)" class="st2" cx="167.6" cy="183.6" rx="26.7" ry="18.5"/>
	<path d="M184.7,190.7c0,0-0.2,0.5-0.7,1.5c-0.4,1-1.1,2.3-2.1,4c-0.5,0.8-1.1,1.8-1.8,2.7c-0.7,1-1.5,1.9-2.4,3
		c-1.8,2-4.2,4.1-7.2,5.8c-0.8,0.4-1.5,0.8-2.4,1.1c-0.4,0.2-0.8,0.3-1.3,0.5c-0.4,0.1-0.9,0.2-1.3,0.3c-1.8,0.4-3.8,0.6-5.8,0.3
		c-0.3,0-0.5-0.1-0.8-0.1l-0.7-0.2l-0.8-0.2l-0.4-0.1l-0.4-0.2c-0.4-0.2-0.9-0.4-1.4-0.6c-0.5-0.3-0.9-0.6-1.4-0.9
		c-1.8-1.3-3.4-2.9-4.6-4.9c-1.2-1.9-2-4.1-2.6-6.3c-0.5-2.2-0.8-4.6-0.8-6.9c0-4.7,1.1-9.3,2.8-13.7c0.5-1.2,0.9-2,1.5-3.1
		c0.6-1.1,1.1-2.1,1.8-3.1c1.3-2,2.8-3.8,4.4-5.4c1.7-1.6,3.5-3.1,5.4-4.3c2-1.1,4.1-2.1,6.3-2.6c2.2-0.5,4.5-0.6,6.7-0.2
		c2.2,0.3,4.1,1.3,5.8,2.5c1.8,1.2,3,2.8,4,4.4c0.2,0.4,0.5,0.8,0.7,1.2c0.2,0.4,0.4,0.8,0.6,1.2c0.4,0.8,0.6,1.7,0.9,2.5
		c0.9,3.3,1.1,6.4,1,9.2c-0.1,1.4-0.2,2.6-0.4,3.8c-0.2,1.2-0.4,2.2-0.6,3.2c-0.5,1.9-0.9,3.4-1.3,4.3
		C184.9,190.2,184.7,190.7,184.7,190.7z M184.7,190.7c0,0,0.2-0.5,0.6-1.5c0.2-0.5,0.4-1.1,0.6-1.8c0.2-0.7,0.5-1.6,0.7-2.5
		c0.4-1.9,0.8-4.3,0.8-7c0-2.7-0.3-5.8-1.5-8.9c-0.3-0.8-0.6-1.6-1-2.3c-0.2-0.4-0.4-0.7-0.6-1.1c-0.2-0.4-0.5-0.7-0.7-1.1
		c-0.2-0.4-0.5-0.7-0.8-1c-0.3-0.3-0.6-0.7-0.9-1c-0.3-0.3-0.7-0.6-1-0.9c-0.3-0.3-0.7-0.5-1.1-0.7c-1.6-0.9-3.3-1.6-5.2-1.7
		c-1.8-0.2-3.7,0.1-5.6,0.7c-1.8,0.6-3.6,1.5-5.3,2.7c-1.6,1.2-3.2,2.5-4.6,4c-1.4,1.6-2.7,3.2-3.8,5c-0.6,0.9-1.1,1.8-1.5,2.7
		c-0.5,0.9-1,2.1-1.4,2.9c-1.6,3.9-2.6,8.1-2.8,12.2c-0.1,2.1,0.1,4.1,0.4,6.1c0.4,2,1,3.9,1.8,5.6c0.9,1.7,2.1,3.2,3.4,4.4
		c0.4,0.3,0.7,0.5,1,0.8c0.4,0.2,0.9,0.5,1.3,0.7l0.3,0.1l0.3,0.1l0.6,0.2l0.6,0.2l0.7,0.2c3.5,0.9,7.1,0.1,10.1-1.2
		c3-1.3,5.4-3.3,7.3-5.2c1.9-1.9,3.3-3.8,4.4-5.5c0.6-0.8,0.9-1.6,1.3-2.3c0.4-0.7,0.6-1.2,0.9-1.7
		C184.4,191.2,184.7,190.7,184.7,190.7z"/>
</g>
<g>
	<ellipse transform="matrix(0.1065 -0.9943 0.9943 0.1065 -2.4293 377.3519)" class="st2" cx="208.7" cy="190" rx="25.3" ry="27"/>
	<path d="M181.9,187.2c0,0,0,0.6-0.1,1.8c-0.1,0.6,0,1.3,0.1,2.2c0,0.9,0.2,1.9,0.4,3c0.5,2.2,1.3,4.8,2.9,7.5
		c1.6,2.7,3.9,5.4,7,7.6c3.1,2.2,6.9,3.9,11.1,4.6c0.5,0.1,1.1,0.1,1.6,0.2c0.5,0,1.1,0.2,1.6,0.1c1.1,0,2.3,0.1,3.4,0
		c0.5,0,1.1-0.1,1.6-0.1c0.6-0.1,1.1-0.2,1.7-0.3c0.6-0.1,1.1-0.2,1.7-0.4c0.5-0.2,1.1-0.3,1.6-0.5c2.2-0.7,4.3-1.7,6.2-3
		c1.9-1.3,3.8-2.8,5.3-4.6c1.5-1.8,2.8-3.8,3.8-5.9c0.4-1.1,0.9-2.2,1.1-3.3c0.1-0.6,0.3-1.1,0.4-1.7l0.1-0.9l0.1-0.4l0-0.2l0-0.1
		l0-0.1c0,0,0-0.1,0,0.1c0.2-2.7,0.1-4.7-0.3-7.1c-0.5-2.3-1.4-4.5-2.5-6.6c-1.1-2.1-2.6-3.9-4.2-5.6c-1.6-1.6-3.5-3.1-5.5-4.2
		c-4-2.3-8.4-3.5-12.7-3.7c-2.1,0-4.2,0-6.2,0.4c-0.5,0.1-1,0.2-1.5,0.3c-0.5,0.1-1,0.3-1.4,0.4c-1,0.2-1.8,0.7-2.7,1
		c-3.5,1.5-6.3,3.7-8.5,5.9c-2.1,2.3-3.5,4.7-4.4,6.7c-0.4,1-0.8,2-1,2.8c-0.2,0.8-0.5,1.5-0.5,2.1
		C182,186.5,181.9,187.2,181.9,187.2z M181.9,187.2c0,0,0.1-0.6,0.3-1.8c0.1-0.6,0.3-1.3,0.5-2.2c0.2-0.9,0.6-1.8,1-2.8
		c0.9-2.1,2.2-4.5,4.3-6.9c2-2.4,4.9-4.7,8.3-6.5c3.5-1.8,7.6-3,12.3-3.1c4.5-0.1,9.4,0.8,14,3c2.3,1.2,4.4,2.6,6.4,4.3
		c1.9,1.8,3.7,3.8,5.1,6.2c1.4,2.3,2.4,4.9,3.1,7.6c0.6,2.6,0.7,5.8,0.5,8.2c0,0.2,0,0.1,0,0.2l0,0.1l0,0.1l0,0.3l-0.1,0.5l-0.2,1
		c-0.1,0.7-0.3,1.4-0.5,2c-0.3,1.4-0.9,2.6-1.4,3.9c-1.2,2.5-2.8,4.8-4.6,6.8c-1.9,2-4,3.6-6.3,4.9c-2.3,1.3-4.7,2.2-7.2,2.9
		c-0.6,0.2-1.2,0.3-1.9,0.4c-0.6,0.1-1.2,0.2-1.8,0.3c-0.6,0.1-1.2,0.1-1.8,0.2c-0.6,0-1.2,0-1.9,0c-1.3,0-2.3-0.1-3.5-0.2
		c-0.7,0-1.2-0.2-1.8-0.3c-0.6-0.1-1.1-0.2-1.7-0.3c-4.4-1.1-8.3-3.2-11.3-5.7c-3-2.5-5.3-5.3-6.8-8.1c-1.5-2.8-2.3-5.4-2.7-7.6
		c-0.2-1.1-0.3-2.1-0.3-3c0-0.9-0.1-1.6,0-2.2C181.9,187.8,181.9,187.2,181.9,187.2z"/>
</g>
<g>
	<path class="st0" d="M176.5,220.4c0,0-14.6-1.3-13.8-8.9s7.6-8.6,15.6-7.7"/>
	<path d="M176.5,220.4c0,0-0.6,0.1-1.7,0.2c-1.1,0.1-2.6,0.1-4.4-0.2c-0.9-0.1-1.9-0.4-3-0.7c-1-0.3-2.2-0.8-3.2-1.5
		c-1.1-0.7-2.2-1.8-2.9-3.2c-0.3-0.7-0.6-1.5-0.6-2.4c0-0.4,0-0.8,0-1.2l0.1-1l0.1-0.4c0-0.2,0.1-0.4,0.1-0.5l0.3-1.1
		c0.3-0.7,0.6-1.3,1-1.9c0.8-1.2,2-2.2,3.2-2.8c1.2-0.6,2.4-0.9,3.5-1c1.1-0.2,2.2-0.1,3.1-0.1c0.9,0.1,1.8,0.2,2.5,0.4
		c0.7,0.1,1.4,0.3,1.9,0.5c0.5,0.1,0.9,0.3,1.2,0.4c0.3,0.1,0.4,0.2,0.4,0.2s-0.6,0.1-1.6,0.3c-1,0.2-2.5,0.3-4.2,0.7
		c-0.8,0.2-1.7,0.4-2.6,0.7c-0.9,0.3-1.7,0.7-2.4,1.2c-0.7,0.5-1.3,1.1-1.7,1.8c-0.2,0.3-0.4,0.8-0.6,1.2l-0.2,0.6
		c0,0.1-0.1,0.2-0.1,0.3l-0.1,0.4l-0.1,0.7c0,0.2,0,0.4,0,0.6c0,0.4,0.1,0.7,0.2,1c0.3,0.7,0.8,1.4,1.5,2c1.4,1.2,3.2,2.1,4.7,2.8
		c1.6,0.7,2.9,1.3,3.9,1.6C175.9,220.2,176.5,220.4,176.5,220.4z"/>
</g>
<ellipse transform="matrix(0.1065 -0.9943 0.9943 0.1065 -36.2905 328.0159)" cx="164.4" cy="184.2" rx="2.3" ry="2.3"/>
<ellipse transform="matrix(0.1065 -0.9943 0.9943 0.1065 -5.5111 370.646)" cx="203.5" cy="188.4" rx="2.3" ry="2.3"/>
<g>
	<path class="st3" d="M158.2,220.8c0,0-3.9,11.3,32,11.1c35.9-0.2,57.8-20,57.8-20s-14.1,97.4-59.2,92.2s-41-14.8-41-14.8
		s24.3,14.3,24.6-13.8C172.8,247.5,158.2,220.8,158.2,220.8z"/>
	<path d="M158.2,220.8c-0.2,1,0,2.1,0.5,3c0.4,0.9,1.2,1.7,1.9,2.3c0.4,0.4,0.8,0.6,1.3,0.9c0.4,0.3,0.9,0.5,1.3,0.7
		c0.5,0.2,0.9,0.5,1.4,0.6l1.5,0.5c1,0.4,2,0.6,3,0.8c1,0.3,2,0.4,3,0.6c2,0.4,4.1,0.5,6.1,0.7c2.1,0.1,4.1,0.2,6.2,0.3
		c2,0,4.1,0,6.1,0l6.2-0.4l6.1-0.7l6-1.1c2-0.5,4-1,5.9-1.5l2.9-0.9l1.5-0.5l1.4-0.5l2.9-1.1c1-0.4,1.9-0.8,2.8-1.2
		c1.9-0.8,3.7-1.7,5.5-2.6c1.8-1,3.6-1.9,5.3-3c0.9-0.5,1.7-1,2.6-1.6c0.9-0.5,1.7-1.1,2.5-1.7c1.6-1.1,3.3-2.4,4.7-3.7l3.4-3
		l-0.6,4.4c-0.5,3.5-1.1,6.8-1.8,10.2c-0.7,3.4-1.4,6.8-2.2,10.1c-1.6,6.7-3.4,13.4-5.6,19.9c-2.2,6.6-4.7,13-7.7,19.3
		c-3,6.3-6.5,12.4-10.8,17.9c-2.2,2.8-4.6,5.4-7.3,7.7c-2.7,2.4-5.7,4.4-9,5.9c-3.3,1.5-6.9,2.5-10.6,2.8c-0.9,0.1-1.8,0.1-2.7,0.1
		c-0.9,0-1.8-0.1-2.7-0.1c-0.2,0-0.4,0-0.7-0.1l-0.6-0.1l-1.3-0.2l-2.5-0.3c-3.4-0.4-6.8-1.1-10.2-1.6l-5.1-1.1
		c-1.7-0.4-3.4-0.8-5.1-1.2c-1.7-0.5-3.4-1-5-1.5c-1.7-0.6-3.3-1.2-4.9-2c-0.8-0.4-1.6-0.8-2.4-1.3c-0.8-0.4-1.5-1.1-2.3-1.6
		c-0.4-0.3-0.7-0.7-1.1-1.1c-0.4-0.4-0.6-0.9-0.9-1.3c-0.1-0.2-0.3-0.5-0.4-0.8l-0.2-0.4l-0.1-0.5c-0.1-0.3-0.1-0.6-0.1-1
		c0-0.2,0-0.3,0-0.5c0-0.2,0-0.4,0.2-0.7l0.7-1.7l1.6,0.9c1.5,0.9,3.3,1.7,5.1,2.3c1.8,0.6,3.6,1,5.4,1.2c1.8,0.1,3.6,0,5.1-0.6
		c1.6-0.6,2.9-1.7,3.9-3.1c1-1.4,1.7-3.1,2.2-4.9c0.3-0.9,0.4-1.8,0.6-2.7c0.1-0.9,0.3-1.9,0.3-2.8l0.1-1.4c0-0.4,0-1,0-1.4l0-2.9
		c0-1-0.1-1.9-0.1-2.9l-0.2-2.9c-0.2-1.9-0.4-3.9-0.7-5.8c-0.3-1.9-0.6-3.9-1-5.8c-0.4-1.9-0.8-3.8-1.3-5.7c-0.4-1.9-1-3.8-1.5-5.7
		c-0.5-1.9-1.1-3.7-1.8-5.6c-0.6-1.9-1.3-3.7-2-5.5C161.4,228,159.9,224.4,158.2,220.8z M158.2,220.8c1,1.7,1.9,3.5,2.7,5.2
		c0.9,1.8,1.7,3.6,2.5,5.4c0.8,1.8,1.5,3.6,2.2,5.5c0.7,1.8,1.4,3.7,2,5.6c0.6,1.9,1.2,3.7,1.7,5.7c0.6,1.9,1,3.8,1.5,5.7
		c0.5,1.9,0.8,3.9,1.2,5.8c0.3,2,0.6,3.9,0.9,5.9l0.3,3c0.1,1,0.2,2,0.2,3l0.1,2.9c0,0.5,0.1,0.9,0,1.5l0,1.5c0,1-0.1,2-0.2,3
		c-0.2,1-0.3,2-0.5,3c-0.5,2-1.2,4-2.4,5.9c-1.2,1.8-3,3.3-5.1,4.2c-2.1,0.9-4.3,1-6.4,0.9c-2.1-0.1-4.2-0.6-6.1-1.2
		c-2-0.7-3.8-1.4-5.7-2.5l2.3-0.8c0.1-0.2,0-0.1,0-0.1c0,0,0,0.1,0,0.1c0,0.1,0,0.2,0.1,0.3l0,0.2l0.1,0.2c0.1,0.1,0.1,0.2,0.2,0.4
		c0.2,0.2,0.3,0.5,0.6,0.8l0.8,0.7c0.6,0.4,1.2,0.9,1.9,1.3c0.7,0.4,1.4,0.8,2.1,1.1c1.4,0.7,3,1.2,4.6,1.8c1.6,0.5,3.2,1,4.8,1.4
		c1.6,0.4,3.3,0.8,4.9,1.1l5,1c3.4,0.5,6.7,1.1,10.1,1.5l2.6,0.3l1.3,0.2l0.6,0.1l0.6,0c0.8,0.1,1.6,0.1,2.4,0.1
		c0.8,0,1.6,0,2.4-0.1c3.2-0.2,6.3-1.1,9.2-2.5c2.9-1.4,5.6-3.2,8.1-5.4c2.5-2.2,4.7-4.6,6.8-7.2c4.1-5.2,7.5-11.1,10.4-17.2
		c2.9-6.1,5.4-12.4,7.6-18.8c2.2-6.4,4.1-13,5.8-19.6c0.8-3.3,1.6-6.6,2.3-10c0.7-3.3,1.3-6.7,1.9-10l2.7,1.5
		c-1.7,1.4-3.4,2.6-5.1,3.8c-0.9,0.6-1.8,1.2-2.7,1.7c-0.9,0.6-1.8,1.1-2.7,1.6c-1.8,1.1-3.7,2-5.6,2.9c-1.9,0.9-3.8,1.8-5.8,2.5
		c-1,0.4-1.9,0.8-2.9,1.1l-3,1l-1.5,0.5l-1.5,0.4l-3,0.8c-2,0.5-4.1,0.9-6.1,1.4l-6.2,1l-6.3,0.5l-6.2,0.1c-2.1,0-4.2-0.1-6.3-0.2
		c-2.1-0.1-4.1-0.3-6.2-0.5c-2.1-0.3-4.1-0.5-6.2-1c-1-0.2-2-0.4-3-0.7c-1-0.3-2-0.5-3-0.9l-1.5-0.6c-0.5-0.2-0.9-0.5-1.4-0.7
		c-0.5-0.2-0.9-0.5-1.3-0.8c-0.4-0.3-0.9-0.6-1.2-1c-0.8-0.7-1.5-1.5-1.9-2.5C158.1,222.9,157.9,221.8,158.2,220.8z"/>
</g>
<g>
	<path class="st4" d="M205.7,301c0,0-7.1-13.2-18.7-17.5c-11.6-4.3-22.2,0.3-22.2,0.3s-6.6-4.1-12.9-4.9c-6.3-0.8-4.1,10.5-4.1,10.5
		s4,11.5,25.7,13.2S205.7,301,205.7,301z"/>
	<path d="M205.7,301c-0.6-0.9-1.2-1.7-1.8-2.5c-0.6-0.8-1.3-1.6-1.9-2.4c-0.6-0.8-1.3-1.5-2-2.2l-1.1-1.1l-1.1-1
		c-0.7-0.7-1.5-1.3-2.3-2c-0.8-0.6-1.6-1.2-2.4-1.7c-0.8-0.6-1.7-1-2.5-1.5c-0.4-0.2-0.9-0.4-1.3-0.6c-0.4-0.2-0.9-0.4-1.3-0.6
		l-1.3-0.5l-0.2-0.1c0,0-0.1,0-0.1,0l-0.4-0.1l-0.7-0.2c-1-0.3-1.9-0.5-2.8-0.7c-1-0.1-1.9-0.3-2.9-0.3c-1-0.1-1.9-0.1-2.9-0.1
		c-1,0-1.9,0.1-2.9,0.2c-1,0.1-1.9,0.2-2.9,0.4c-0.9,0.2-1.9,0.4-2.8,0.7c-0.9,0.3-1.9,0.6-2.6,0.9l-0.9,0.4l-0.9-0.5
		c-0.4-0.2-0.9-0.5-1.4-0.8c-0.5-0.3-1-0.5-1.4-0.7c-1-0.5-2-0.9-3-1.3c-2-0.8-4-1.4-6-1.7l-0.2,0l-0.1,0l0,0l0,0c0,0,0.2,0,0.1,0
		l0,0l-0.1,0l-0.4,0c-0.2,0-0.2,0-0.3,0c-0.2,0.1-0.4,0.1-0.5,0.3c-0.3,0.3-0.7,1-0.8,1.9c-0.2,0.9-0.2,1.9-0.2,2.9
		c0,0.5,0,1,0.1,1.5c0,0.5,0.1,1.1,0.2,1.5l-0.1-0.3c0,0.1,0.2,0.4,0.3,0.6c0.1,0.2,0.3,0.5,0.4,0.7c0.3,0.5,0.6,0.9,1,1.4
		c0.3,0.5,0.8,0.9,1.2,1.3c0.4,0.4,0.9,0.8,1.3,1.2c0.5,0.4,0.9,0.7,1.4,1.1l1.5,1l1.6,0.9c0.5,0.3,1.1,0.5,1.7,0.8
		c1.1,0.5,2.3,0.9,3.5,1.3c1.2,0.3,2.4,0.7,3.6,0.9c1.2,0.2,2.5,0.6,3.7,0.7l1.9,0.3l0.9,0.1l1,0.1c1.3,0.1,2.6,0.3,3.9,0.3
		c1.3,0.1,2.6,0.2,3.9,0.3c2.6,0.2,5.2,0.2,7.8,0.3c1.3,0,2.6,0,3.9,0c1.3,0,2.6-0.1,3.9-0.1C200.5,301.8,203.1,301.5,205.7,301z
		 M205.7,301c-1.2,0.5-2.5,0.8-3.8,1.1c-1.3,0.3-2.6,0.5-3.9,0.8c-1.3,0.2-2.6,0.4-3.9,0.6c-1.3,0.2-2.6,0.3-3.9,0.4
		c-2.6,0.2-5.2,0.3-7.9,0.4c-1.3,0-2.6,0-4,0c-1.3,0-2.6-0.1-3.9-0.1l-1,0l-1-0.1l-2-0.2c-1.3-0.1-2.7-0.4-4-0.5
		c-1.3-0.2-2.6-0.6-4-0.9c-1.3-0.4-2.6-0.8-3.9-1.3c-0.6-0.3-1.3-0.5-1.9-0.8l-1.9-0.9l-1.8-1.1c-0.6-0.4-1.1-0.8-1.7-1.3
		c-0.5-0.5-1.1-0.9-1.6-1.4c-0.5-0.5-1-1-1.5-1.6c-0.5-0.5-0.9-1.1-1.3-1.8c-0.2-0.3-0.4-0.6-0.6-1c-0.2-0.4-0.3-0.6-0.5-1.2l0-0.1
		l0-0.2c-0.1-0.7-0.2-1.2-0.3-1.8c-0.1-0.6-0.1-1.2-0.1-1.8c0-1.2,0-2.5,0.2-3.8c0.1-0.7,0.3-1.3,0.6-2c0.3-0.7,0.8-1.4,1.4-2
		c0.7-0.6,1.6-1.1,2.5-1.2c0.4-0.1,1-0.1,1.3-0.1l0.4,0l0.1,0l0.1,0l0,0l0.1,0l0.2,0c2.5,0.4,4.7,1.1,6.9,2c1.1,0.5,2.2,0.9,3.2,1.5
		c0.5,0.3,1,0.5,1.5,0.8c0.5,0.3,1,0.6,1.5,0.9l-1.7-0.1c1.1-0.4,2.1-0.7,3.2-1c1-0.3,2.1-0.5,3.1-0.6c1.1-0.2,2.1-0.3,3.2-0.4
		c1.1-0.1,2.1-0.1,3.2-0.1c1.1,0.1,2.1,0.1,3.2,0.3c1.1,0.1,2.1,0.4,3.1,0.6c1,0.3,2.2,0.5,3.1,0.9l0.7,0.3l0.4,0.1l0.2,0.1l0.2,0.1
		l1.5,0.7c0.5,0.2,0.9,0.5,1.4,0.8c0.5,0.3,0.9,0.5,1.4,0.8c0.9,0.6,1.8,1.2,2.5,1.9c0.8,0.6,1.6,1.4,2.3,2.1
		c0.7,0.7,1.5,1.5,2.1,2.2l1,1.2l1,1.2c0.6,0.8,1.2,1.6,1.8,2.5C203.8,297.4,204.8,299.2,205.7,301z"/>
</g>
<g>
	<path class="st2" d="M161,226.7l-0.1,10.5l9.9,3.1l6.1-6.7l2.5,7.6l11.8-0.4l3-5.7l5.6,8.3l9.8,1l1.1-9.9l4.7,12.2
		c0,0,2.2,1.6,5.6,0.6c3.5-1,9.9-10.7,9.9-10.7l1.6-14.7c0,0-27.7,11-44.9,8.8C170.4,228.5,161,226.7,161,226.7z"/>
	<path d="M161,226.7c0.1,3.5,0.3,7,0.4,10.5l-0.3-0.4c3.3,0.9,6.7,1.8,10,2.7l-0.8,0.2l5.9-6.9l1.2-1.4l0.6,1.8l2.7,7.6l-1.3-0.9
		c3.9-0.2,7.8-0.4,11.8-0.6l-1.3,0.8l2.9-5.8l1.2-2.4l1.6,2.3c1.9,2.7,3.8,5.5,5.8,8.2l-1.3-0.8l9.8,0.9l-2.1,1.7
		c0.3-3.3,0.7-6.6,1-9.9l0.8-7.9l2.9,7.4l4.8,12.2l-0.7-0.9c-0.1,0,0,0,0.1,0l0.2,0.1c0.1,0.1,0.3,0.1,0.4,0.2
		c0.3,0.1,0.6,0.2,0.9,0.2c0.6,0.1,1.2,0.1,1.9-0.1l0.5-0.1l0,0l0,0l0,0c0.2-0.1-0.2,0.1-0.2,0.1l0,0l0.1,0l0.1-0.1l0.3-0.1l0.1-0.1
		l0.1,0l0.1-0.1c0.1,0,0.2-0.1,0.3-0.2c0.6-0.4,1.1-0.9,1.7-1.5c0.6-0.6,1.1-1.2,1.6-1.8c0.5-0.6,1.1-1.3,1.6-1.9
		c0.5-0.7,1-1.3,1.5-2c0.5-0.7,1-1.4,1.4-2l-0.3,0.9l0.8-7.4l0.9-7.4l2.5,1.9c-1.5,0.6-2.9,1.1-4.4,1.6c-1.5,0.5-2.9,1-4.4,1.4
		c-2.9,0.9-5.9,1.8-8.9,2.5c-1.5,0.4-3,0.7-4.5,1c-1.5,0.3-3,0.6-4.5,0.9c-1.5,0.3-3.1,0.5-4.6,0.7c-1.5,0.1-3.1,0.3-4.6,0.4
		l-2.3,0.1c-0.8,0-1.6,0-2.3,0c-1.6,0-3.1-0.2-4.7-0.4c-1.5-0.2-3-0.5-4.5-0.7l-4.5-0.8c-3-0.5-6-1.1-9-1.7
		C167,228.1,164,227.4,161,226.7z M161,226.7c6,0.8,12.1,1.5,18.1,2.2l4.5,0.5c1.5,0.1,3,0.3,4.5,0.4c1.5,0.1,2.9,0.2,4.4,0.1
		c0.7,0,1.5,0,2.2-0.1l2.2-0.2c1.5-0.1,3-0.4,4.4-0.6c1.5-0.3,3-0.5,4.4-0.8c1.5-0.3,2.9-0.6,4.4-1c1.5-0.4,2.9-0.7,4.4-1.2
		c1.5-0.4,2.9-0.9,4.3-1.3c1.4-0.5,2.9-0.9,4.3-1.4c1.4-0.5,2.8-1,4.3-1.5c1.4-0.5,2.8-1,4.2-1.6l2.8-1.1l-0.3,3l-0.7,7.4l-0.8,7.4
		l0,0.5l-0.3,0.4c-0.5,0.8-1,1.5-1.5,2.2c-0.5,0.7-1,1.4-1.6,2.1c-0.5,0.7-1.1,1.4-1.7,2.1c-0.6,0.7-1.2,1.4-1.8,2
		c-0.6,0.7-1.3,1.3-2.1,1.9c-0.3,0.3-1.1,0.8-1.5,0.9l-0.3,0.1l-0.1,0.1l-0.1,0l0,0l-0.2,0.1l0,0l0,0l-0.8,0.2
		c-1,0.2-2.1,0.2-3.2,0.1c-0.5-0.1-1.1-0.2-1.6-0.4c-0.3-0.1-0.5-0.2-0.8-0.3c-0.1-0.1-0.3-0.1-0.4-0.2c-0.1-0.1-0.2-0.1-0.5-0.3
		l-0.5-0.3l-0.2-0.6l-4.7-12.3l3.7-0.5c-0.4,3.3-0.7,6.6-1.1,9.9l-0.2,1.9l-1.8-0.2l-9.8-1.2l-0.8-0.1l-0.4-0.7
		c-1.8-2.8-3.7-5.6-5.5-8.4l2.8-0.2l-3.1,5.7l-0.4,0.8l-0.9,0c-3.9,0.1-7.9,0.2-11.8,0.2l-1,0l-0.3-0.9l-2.3-7.7l1.8,0.4l-6.3,6.5
		l-0.4,0.4l-0.5-0.2c-3.3-1.1-6.5-2.3-9.8-3.4l-0.3-0.1l0-0.3C160.6,233.7,160.8,230.2,161,226.7z"/>
</g>
<g>
	<path class="st2" d="M148.8,291.3l4.7-5.6l4.4,6.6l2.6,3.9l5.1-6.5l12.8,2.8l2.7,5.9l0.7-6.6l11.5,2.3l5.2,9.7
		c0,0-23.9,1.8-32.2-2.2S148.8,291.3,148.8,291.3z"/>
	<path d="M148.8,291.3c1.4-2,2.8-4,4.3-6l0.4-0.5l0.4,0.6c1.3,1.7,2.5,3.4,3.8,5.1l3.7,5.1l-1.8-0.1c1.6-2.2,3.2-4.5,4.8-6.7
		l0.5-0.7l0.9,0.2l6.4,1.2c2.1,0.4,4.3,0.8,6.4,1.3l0.8,0.2l0.4,0.8l2.8,5.9l-3.6,0.6c0.2-2.2,0.4-4.4,0.6-6.6l0.2-2.1l2.1,0.4
		l5.7,1.1c1.9,0.4,3.8,0.7,5.7,1.1l0.9,0.2l0.4,0.8l5.1,9.7l1.4,2.6l-2.9,0.2c-2.2,0.2-4.4,0.2-6.7,0.2c-2.2,0-4.4,0-6.7,0
		c-1.1,0-2.2,0-3.3-0.1c-1.1-0.1-2.2-0.1-3.3-0.3c-1.1-0.1-2.2-0.2-3.3-0.4c-1.1-0.1-2.2-0.3-3.3-0.5c-1.1-0.3-2.2-0.5-3.3-0.9
		c-0.6-0.2-1.1-0.3-1.6-0.6c-0.5-0.2-1.1-0.5-1.6-0.7c-1-0.5-1.9-1.1-2.9-1.6c-1-0.6-1.9-1.2-2.8-1.7c-1.9-1.2-3.7-2.4-5.5-3.7
		C152.3,294,150.5,292.7,148.8,291.3z M148.8,291.3c3.8,2.2,7.7,4.2,11.6,6.2c2,1,3.9,1.9,5.9,2.8c0.5,0.3,1,0.4,1.4,0.5
		c0.5,0.2,1,0.3,1.5,0.4c1,0.3,2.1,0.4,3.1,0.6c1.1,0.1,2.1,0.3,3.2,0.3c1.1,0.1,2.1,0.1,3.2,0.2c2.2,0.1,4.3,0.1,6.5,0.1
		c2.2,0,4.3-0.1,6.5-0.2c2.2-0.1,4.4-0.2,6.5-0.4l-1.6,2.8l-5.2-9.7l1.4,1c-1.9-0.4-3.8-0.8-5.7-1.2l-5.7-1.2l2.3-1.7
		c-0.3,2.2-0.5,4.4-0.8,6.6l-0.9,6.7l-2.7-6.1l-2.6-6l1.2,1c-2.1-0.5-4.2-1-6.4-1.5l-6.3-1.6l1.4-0.5c-1.7,2.1-3.5,4.2-5.3,6.3
		l-1,1.2l-0.8-1.3c-1.1-1.8-2.2-3.6-3.3-5.4c-1.1-1.8-2.2-3.6-3.2-5.4l0.8,0C152.2,287.8,150.5,289.6,148.8,291.3z"/>
</g>
<rect x="148" y="142.2" transform="matrix(0.9356 -0.3531 0.3531 0.9356 -41.6816 66.9417)" width="29.3" height="11"/>
<rect x="209.8" y="142.8" transform="matrix(0.9943 0.1065 -0.1065 0.9943 17.0702 -23.0656)" width="29.3" height="11"/>
<g>
	<path class="st1" d="M271.5,280.6c0,0,21-27.3,31.8-29.7c10.8-2.3,34.2-8.3,34.2-8.3l7.3-19.3c0,0,10,6,10,6.7
		c0,0.6-9.3,16.6-9.3,16.6l21.8,4.3l-7.2,11.8l-16.7-10.8l12.7,14.7l-3.3,9.2l-12.7-13.2l6,13.4h-15.3l-6.7-18.7
		c0,0-22.7,19.2-26.7,23.2s-10,12.7-10,12.7"/>
	<path d="M271.5,280.6c3.9-5.3,8.1-10.5,12.5-15.4c2.2-2.5,4.5-4.9,6.9-7.1c2.4-2.3,5-4.5,7.9-6.2c0.7-0.4,1.5-0.9,2.3-1.2
		c0.4-0.2,0.8-0.4,1.3-0.5c0.4-0.1,0.9-0.3,1.3-0.3l4.8-1.2l9.6-2.5l19.1-5.1l-1,0.9l7.1-19.4l0.7-1.9l1.8,1.1
		c2.2,1.3,4.5,2.7,6.7,4.1l1.7,1.1c0.6,0.4,1.1,0.7,1.8,1.3c0.1,0.1,0.2,0.2,0.4,0.4l0.1,0.1l0,0c0,0,0,0,0.1,0.1
		c0.1,0.2,0.2,0.5,0.2,0.8l0,0.1c0,0.2,0-0.3,0,0.5l0,0l0,0l0,0.1l-0.1,0.3l-0.2,0.4l-0.2,0.4l-0.2,0.3l-0.2,0.4l-0.9,1.8
		c-2.5,4.6-5.1,9.1-7.7,13.6l-1.3-2.8l21.8,4.3l2.8,0.5l-1.5,2.4l-7.1,11.8l-1.1,1.8l-1.7-1.1l-16.6-10.8l2.5-2.9l12.6,14.8l0.7,0.9
		l-0.4,1l-3.4,9.2l-1,2.8l-2-2.1L339,263.9l2.8-1.9l5.9,13.5l1,2.3l-2.4,0l-15.3-0.2l-1,0l-0.3-0.9l-6.4-18.8l1.8,0.5l-9.9,8.2
		l-9.9,8.2c-1.6,1.4-3.3,2.8-4.9,4.2c-0.8,0.7-1.6,1.4-2.4,2.1c-0.8,0.8-1.5,1.5-2.2,2.3c-2.8,3.2-5.5,6.6-8.1,10
		c1.2-1.8,2.4-3.6,3.6-5.3c1.2-1.7,2.5-3.5,3.9-5.2c0.7-0.8,1.4-1.7,2.1-2.4c0.8-0.8,1.5-1.5,2.3-2.3c1.6-1.5,3.1-2.9,4.7-4.4
		l9.6-8.6c3.2-2.9,6.4-5.7,9.7-8.5l1.2-1.1l0.6,1.6l6.9,18.6l-1.3-0.9l15.3-0.2l-1.5,2.2l-6.1-13.4l-4.1-9l7,7.1l12.8,13.1l-3.1,0.7
		l3.3-9.2l0.3,1.9l-12.7-14.7l-8.9-10.3l11.5,7.4l16.7,10.8l-2.8,0.6l7.2-11.8l1.3,2.9l-21.8-4.4l-2.6-0.5l1.4-2.3
		c2.6-4.5,5.3-8.9,7.8-13.4l0.9-1.7l0.2-0.4l0.1-0.1c0,0,0,0,0-0.1c0,0,0,0,0.1-0.1c0,0,0.1-0.1,0.1-0.2l0-0.1l0,0l0,0
		c-0.1,0.7,0,0.3,0,0.4l0,0.1c0,0.2,0.1,0.5,0.2,0.7l0.1,0.1c0.1,0.1,0.1,0.1,0.1,0.1c-0.3-0.3-0.8-0.7-1.3-1l-1.6-1.1
		c-2.1-1.4-4.3-2.8-6.5-4.1l2.5-0.9l-7.5,19.3l-0.3,0.7l-0.7,0.2c-6.4,1.6-12.8,3.1-19.3,4.6l-9.7,2.2l-4.9,1
		c-0.4,0.1-0.8,0.2-1.1,0.3c-0.4,0.1-0.7,0.2-1.1,0.4c-0.7,0.3-1.4,0.6-2.1,1c-2.8,1.5-5.4,3.6-7.8,5.7c-2.5,2.1-4.8,4.4-7.2,6.8
		c-2.3,2.3-4.5,4.8-6.8,7.2C275.8,275.5,273.6,278,271.5,280.6z"/>
</g>
<g>
	<path class="st0" d="M119.9,313.7c0,0-5.2,33-5.6,42s6,33.4,6,33.4l-20.9,12.2L103,413l25.7-9l7.9-13.5c0,0-7-30.2-2.5-37.9
		c4.5-7.7,26.8-22.1,26.8-22.1"/>
	<path d="M119.9,313.7l-2.1,19l-1,9.5c-0.3,3.2-0.7,6.3-0.9,9.5c-0.1,1.6-0.3,3.2-0.2,4.6l0,1.2c0,0.4,0.1,0.8,0.1,1.1
		c0.1,0.7,0.1,1.5,0.2,2.3c0.1,0.8,0.2,1.5,0.3,2.3c0.1,0.8,0.2,1.5,0.4,2.3c0.3,1.5,0.6,3.1,0.9,4.6c0.6,3.1,1.4,6.2,2.1,9.3
		c0.7,3.1,1.5,6.2,2.3,9.2l0.4,1.3l-1.2,0.7l-10.4,6.2l-10.4,6.1l0.9-2.3l3.6,11.7l-2.6-1.3l25.7-8.9l-1,0.8l8.1-13.5l-0.2,1.3
		c-0.7-3-1.2-6-1.7-9.1c-0.5-3-0.9-6.1-1.3-9.2c-0.3-3.1-0.6-6.2-0.6-9.3c0-1.6,0-3.1,0.2-4.7c0.1-1.6,0.4-3.2,0.9-4.8
		c0.3-0.8,0.6-1.7,1.2-2.3l0.7-0.9c0.2-0.3,0.5-0.6,0.8-0.9l0.8-0.9l0.8-0.8c0.6-0.6,1.1-1.1,1.7-1.6c1.2-1,2.4-2,3.6-3
		c1.2-0.9,2.4-1.9,3.7-2.8c1.2-0.9,2.5-1.8,3.8-2.7c1.3-0.9,2.5-1.7,3.8-2.6c2.6-1.7,5.2-3.3,7.8-4.9c-2.5,1.8-4.9,3.6-7.4,5.5
		c-1.2,0.9-2.4,1.9-3.6,2.8c-1.2,1-2.4,1.9-3.5,2.9c-1.2,1-2.3,2-3.5,3c-1.1,1-2.3,2-3.3,3.1c-0.5,0.5-1.1,1.1-1.6,1.6l-0.8,0.8
		l-0.7,0.8c-0.2,0.3-0.5,0.5-0.7,0.8l-0.6,1c-0.4,0.5-0.6,1.1-0.8,1.8c-0.4,1.3-0.5,2.8-0.6,4.2c-0.1,1.5,0,3,0.1,4.5
		c0.2,3,0.5,6,0.9,9c0.4,3,1,6,1.5,9c0.6,3,1.2,6,1.9,8.9l0.2,0.7l-0.4,0.6l-7.8,13.6l-0.3,0.6l-0.7,0.2l-25.7,9.1l-2,0.7l-0.6-2
		l-3.6-11.7l-0.5-1.5l1.3-0.8l10.5-6.1l10.5-6l-0.8,2c-0.8-3.1-1.5-6.2-2.2-9.4c-0.7-3.1-1.3-6.3-1.9-9.4c-0.3-1.6-0.5-3.2-0.8-4.8
		c-0.1-0.8-0.2-1.6-0.3-2.4c-0.1-0.8-0.2-1.6-0.3-2.4c-0.1-0.8-0.2-1.6-0.2-2.5c0-0.4,0-0.8,0-1.3l0-1.2c0.1-1.7,0.3-3.3,0.5-4.9
		c0.8-6.4,1.9-12.6,2.9-18.9c0.5-3.1,1.1-6.3,1.7-9.4C118.7,319.9,119.3,316.8,119.9,313.7z"/>
</g>
<g>
	<path class="st1" d="M253.4,334.2c0,0,24.8,16.2,28.7,22.6c3.8,6.4,0,31.1,0,31.1l16.2,21.7l14.5-3v-8.5l-11.1-14.9
		c0,0,0.9-18.6,0-29.8s-14.5-46.5-14.5-46.5l-6.4-3.8"/>
	<path d="M253.4,334.2c4.9,2.9,9.6,6,14.3,9.2c2.3,1.6,4.7,3.3,6.9,5c2.3,1.7,4.5,3.5,6.6,5.6c1,1.1,2,2.3,2.6,3.9
		c0.5,1.5,0.8,2.9,1,4.4c0.4,2.9,0.4,5.8,0.4,8.7c-0.1,2.9-0.2,5.7-0.5,8.6c-0.2,2.9-0.5,5.7-0.9,8.5l-0.3-1.3l8.2,10.8
		c2.7,3.6,5.5,7.2,8.2,10.8l-1.9-0.7l14.5-3l-1.6,1.9l0-8.5l0.4,1.2l-11-15l-0.4-0.6l0-0.7c0.3-6.5,0.5-13,0.6-19.5
		c0-3.3,0-6.5-0.2-9.7c0-0.3-0.1-0.8-0.1-1.2c0-0.4-0.1-0.8-0.1-1.1c-0.1-0.8-0.2-1.6-0.4-2.3c-0.3-1.6-0.7-3.1-1.1-4.7
		c-1.6-6.3-3.5-12.6-5.4-18.8c-1-3.1-2-6.2-3-9.3c-1-3.1-2-6.2-3.1-9.3l0.1,0.2l-6.2-4.1l6.6,3.6l0.1,0l0,0.1c1.3,3,2.5,6,3.8,9.1
		c1.2,3,2.4,6.1,3.6,9.2c1.2,3.1,2.3,6.2,3.3,9.3c1.1,3.1,2.1,6.2,3,9.4c0.5,1.6,0.9,3.2,1.3,4.8c0.2,0.8,0.4,1.6,0.5,2.5
		c0.1,0.4,0.2,0.9,0.2,1.3c0,0.4,0.1,0.8,0.1,1.3c0.3,3.3,0.4,6.6,0.5,9.9c0.1,3.3,0.1,6.6,0,9.9c0,3.3-0.1,6.6-0.2,9.9l-0.4-1.2
		l11.1,14.9l0.4,0.5l0,0.7l0,8.5l0,1.6l-1.6,0.3l-14.5,2.9l-1.2,0.2l-0.7-1c-2.7-3.6-5.3-7.3-8-10.9l-8-11l-0.4-0.6l0.1-0.7
		c0.5-2.7,0.8-5.6,1.2-8.3c0.3-2.8,0.6-5.6,0.7-8.4c0.1-2.8,0.2-5.6,0-8.3c-0.1-1.4-0.3-2.7-0.7-3.9c-0.3-1.1-1.1-2.2-2-3.2
		c-1.8-2-3.9-3.9-6.1-5.7c-2.1-1.8-4.4-3.6-6.6-5.3C262.6,340.9,258,337.5,253.4,334.2z"/>
</g>
<g>
	<ellipse transform="matrix(0.4202 -0.9074 0.9074 0.4202 -14.6547 380.9648)" class="st5" cx="290.8" cy="202" rx="20" ry="8.9"/>
	<g>
		<path d="M282.7,198.2c0,0-0.1,0.3-0.4,1c-0.3,0.6-0.7,1.6-1.1,2.8c-0.4,1.2-0.9,2.7-1.2,4.5c-0.3,1.7-0.6,3.8-0.5,5.9
			c0.1,1.1,0.2,2.2,0.5,3.3c0.3,1.1,0.8,2.1,1.6,2.8c0.2,0.1,0.4,0.4,0.6,0.5l0.3,0.2l0.2,0.1c0.1,0-0.1,0-0.1,0l0,0l0.1,0l0.1,0
			c0.3,0.1,0.7,0.2,0.9,0.2c0.2,0,0.4,0,0.7-0.1c1-0.2,2.1-0.7,3.1-1.4c2-1.5,3.8-3.5,5.4-5.8c1.6-2.3,3-4.7,4.1-7.3l0.9-2
			c0.2-0.6,0.5-1.3,0.7-1.9c0.5-1.3,0.9-2.6,1.2-4c0.7-2.6,1.1-5.3,0.9-7.8c-0.1-1.2-0.4-2.4-0.9-3.3c-0.3-0.5-0.6-0.8-1-1.1
			l-0.1-0.1l0,0l0,0c0,0,0.2,0.1,0.1,0l-0.2-0.1l-0.4-0.2c-0.2-0.1-0.3-0.1-0.4-0.1c-0.1,0-0.2,0-0.3-0.1c-1-0.1-2.2,0.2-3.2,0.6
			c-1,0.4-2,1.1-2.8,1.7c-1.7,1.3-3.1,2.8-4.2,4.2c-1.1,1.4-2,2.7-2.7,3.8c-0.6,1.1-1.1,2-1.4,2.6
			C282.9,197.9,282.7,198.2,282.7,198.2z M282.7,198.2c0,0,0.2-0.3,0.5-1c0.3-0.6,0.8-1.5,1.4-2.7c0.6-1.1,1.4-2.5,2.5-3.9
			c1-1.5,2.3-3.1,3.9-4.7c0.8-0.8,1.7-1.6,2.8-2.2c1.1-0.6,2.3-1.2,3.9-1.3l0.6,0c0.2,0,0.4,0,0.6,0.1l0.5,0.1l0.2,0.1
			c-0.1,0,0.1,0.1,0.1,0.1l0,0l0.1,0l0.1,0.1c0.7,0.3,1.4,0.9,1.9,1.5c1,1.3,1.6,2.7,1.9,4.2c0.3,1.5,0.4,3,0.4,4.5
			c-0.1,1.5-0.2,3-0.5,4.5c-0.3,1.5-0.7,3-1.2,4.4c-0.2,0.7-0.5,1.5-0.8,2.2l-0.9,2.1c-1.3,2.8-2.9,5.4-4.8,7.8
			c-1.9,2.4-4.2,4.5-6.8,6c-1.3,0.7-2.8,1.3-4.5,1.3c-0.4,0-0.9-0.1-1.3-0.1c-0.5-0.1-0.7-0.2-1-0.3c-0.8-0.4-1.4-0.9-1.9-1.5
			c-0.9-1.2-1.3-2.5-1.5-3.7c-0.2-1.2-0.2-2.4-0.2-3.6c0.1-2.3,0.6-4.3,1-6c0.4-1.7,1-3.2,1.4-4.4c0.5-1.2,0.8-2.1,1.1-2.8
			C282.5,198.5,282.7,198.2,282.7,198.2z"/>
	</g>
</g>
<g>
	
		<ellipse transform="matrix(0.6672 -0.7449 0.7449 0.6672 -148.8646 275.1191)" class="st1" cx="233.5" cy="304.2" rx="17.4" ry="7.8"/>
	<g>
		<path d="M227.7,299c0,0-0.2,0.2-0.6,0.7c-0.4,0.5-0.9,1.1-1.6,2c-0.6,0.9-1.4,2-2.1,3.4c-0.7,1.4-1.4,3-1.9,4.8
			c-0.2,0.9-0.4,1.9-0.4,2.9c0,1,0.2,2,0.6,2.7c0.1,0.2,0.2,0.4,0.4,0.5l0.2,0.2l0.1,0.1c0.1,0.1-0.1-0.1-0.1-0.1l0,0l0,0l0.1,0.1
			c0.2,0.1,0.5,0.4,0.7,0.3c0.2,0,0.3,0.1,0.5,0.1c0.9,0.1,1.9-0.1,2.9-0.4c2-0.7,4-2,5.8-3.5c1.8-1.5,3.7-3.2,5.2-4.9l1.2-1.4
			c0.4-0.5,0.7-0.9,1.1-1.4c0.7-1,1.4-1.9,2-3c1.3-2,2.3-4.1,2.8-6.2c0.5-2.1,0.3-4.1-1.4-4.8c-0.8-0.4-1.8-0.4-2.8-0.3
			c-1,0.1-1.9,0.4-2.8,0.7c-1.8,0.6-3.3,1.5-4.6,2.4c-1.3,0.9-2.3,1.7-3.2,2.5c-0.8,0.8-1.5,1.4-1.9,1.8
			C227.9,298.8,227.7,299,227.7,299z M227.7,299c0,0,0.2-0.2,0.6-0.7c0.4-0.5,1-1.1,1.8-1.9c0.8-0.8,1.8-1.7,3.1-2.7
			c1.2-1,2.7-2,4.4-2.9c0.9-0.4,1.8-0.9,2.9-1.1c1.1-0.3,2.3-0.5,3.6-0.1c0.3,0.1,0.8,0.3,1,0.4l0.4,0.2l0.2,0.1
			c-0.1-0.1,0.1,0.1,0.1,0.1l0,0l0,0l0.1,0.1c0.5,0.5,1,1.1,1.3,1.8c0.6,1.3,0.7,2.8,0.5,4.1c-0.3,2.7-1.2,5.2-2.4,7.6
			c-0.6,1.2-1.3,2.3-2.1,3.4c-0.4,0.6-0.8,1.1-1.2,1.6l-1.2,1.5c-1.9,2.1-3.8,3.8-6.1,5.3c-2.2,1.5-4.7,2.7-7.3,3.2
			c-1.3,0.3-2.7,0.3-4.1-0.1c-0.3-0.1-0.7-0.3-1.1-0.5c-0.4-0.2-0.5-0.4-0.8-0.6c-0.6-0.6-1-1.1-1.2-1.8c-0.5-1.3-0.4-2.5-0.3-3.6
			c0.1-1.1,0.5-2.1,0.8-3c0.7-1.8,1.6-3.4,2.4-4.7c0.8-1.3,1.6-2.4,2.3-3.3c0.7-0.9,1.2-1.6,1.7-2C227.5,299.2,227.7,299,227.7,299z
			"/>
	</g>
</g>
<g>
	<ellipse class="st5" cx="131.5" cy="286.7" rx="7.3" ry="13.5"/>
	<path d="M138.7,286.7c0,0,0,0.3,0,0.7c0,0.5-0.1,1.2-0.1,2.1c-0.2,1.8-0.5,4.4-1.9,7.4c-0.3,0.7-0.8,1.5-1.4,2.2
		c-0.6,0.7-1.4,1.3-2.4,1.8c-0.5,0.2-1,0.3-1.7,0.3c-0.2,0-0.4,0-0.7,0c-0.3-0.1-0.7-0.1-1-0.2c-1.1-0.3-2.1-1-2.9-1.8
		c-1.6-1.6-2.7-3.7-3.4-5.8c-0.7-2.2-1-4.3-1-6.7c0-0.5,0-1,0.1-1.6c0.1-0.6,0.1-1.2,0.2-1.7c0.2-1.1,0.4-2.2,0.8-3.3
		c0.7-2.1,1.8-4.2,3.4-5.8c0.8-0.8,1.8-1.5,2.9-1.8c0.6-0.2,1.2-0.3,1.7-0.2l0.1,0l0.1,0l0,0c0,0,0.2,0,0.1,0l0.2,0l0.3,0.1
		c0.2,0,0.5,0.1,0.8,0.2c1.1,0.4,1.8,1.1,2.4,1.8c0.6,0.7,1.1,1.4,1.4,2.2c1.4,2.9,1.7,5.6,1.9,7.4c0.1,0.9,0.1,1.6,0.1,2.1
		C138.7,286.4,138.7,286.7,138.7,286.7z M138.7,286.7c0,0,0-0.3,0-0.7c0-0.5-0.1-1.2-0.2-2.1c-0.1-0.9-0.3-2-0.7-3.2
		c-0.4-1.2-1-2.5-1.8-3.7c-0.4-0.6-1-1.2-1.5-1.7c-0.6-0.5-1.3-0.8-2-1c-1.5-0.3-2.7,0.5-3.7,1.9c-0.5,0.7-0.9,1.4-1.2,2.3
		c-0.3,0.8-0.6,1.7-0.8,2.6c-0.2,0.9-0.3,1.8-0.4,2.8c-0.1,0.5-0.1,0.9-0.1,1.4c0,0.5,0,1,0,1.5c0,1.8,0.2,3.8,0.6,5.6
		c0.2,0.9,0.4,1.8,0.8,2.6c0.3,0.8,0.7,1.6,1.2,2.3c0.5,0.7,1,1.2,1.6,1.6c0.1,0.1,0.3,0.1,0.4,0.2c0.1,0.1,0.4,0.1,0.6,0.1
		c0.2,0,0.7,0.1,1,0c0.7-0.1,1.4-0.5,2-1c0.6-0.5,1.1-1.1,1.5-1.7c0.9-1.2,1.4-2.6,1.8-3.8c0.4-1.2,0.6-2.3,0.7-3.2
		c0.1-0.9,0.2-1.6,0.2-2.1C138.7,287,138.7,286.7,138.7,286.7z"/>
</g>
<g>
	
		<ellipse transform="matrix(0.9569 -0.2905 0.2905 0.9569 -33.8333 83.4797)" class="st5" cx="264.3" cy="155.7" rx="7.3" ry="13.5"/>
	<path d="M271.2,153.6c0,0,0.1,0.3,0.2,0.7c0.1,0.5,0.3,1.2,0.5,2.1c0.3,1.8,0.8,4.4,0.3,7.6c-0.1,0.8-0.4,1.6-0.7,2.5
		c-0.4,0.8-0.9,1.7-1.8,2.4c-0.4,0.4-0.9,0.6-1.5,0.8c-0.2,0.1-0.4,0.1-0.7,0.2c-0.3,0-0.7,0.1-1,0.1c-1.2,0-2.3-0.4-3.3-0.9
		c-2-1.1-3.6-2.7-4.9-4.6c-1.3-1.8-2.2-3.9-2.9-6.1c-0.2-0.6-0.3-1-0.4-1.6c-0.1-0.6-0.3-1.2-0.3-1.7c-0.2-1.1-0.2-2.2-0.2-3.4
		c0-2.2,0.5-4.5,1.5-6.5c0.5-1,1.3-2,2.3-2.6c0.5-0.3,1-0.6,1.6-0.7l0.1,0l0.1,0l0,0c0,0,0.2,0,0.1,0l0.2,0l0.3,0c0.2,0,0.5,0,0.8,0
		c1.1,0.1,2,0.5,2.8,1c0.8,0.5,1.4,1.1,2,1.7c2.2,2.4,3.2,4.8,4,6.5c0.3,0.9,0.6,1.5,0.7,2C271.1,153.4,271.2,153.6,271.2,153.6z
		 M271.2,153.6c0,0-0.1-0.2-0.2-0.7c-0.2-0.5-0.4-1.1-0.8-2c-0.4-0.8-0.9-1.8-1.6-2.8c-0.7-1-1.6-2.1-2.9-3.1
		c-0.6-0.5-1.3-0.9-2-1.2c-0.7-0.3-1.5-0.4-2.2-0.3c-1.5,0.1-2.5,1.3-3,2.9c-0.3,0.8-0.4,1.6-0.5,2.5c-0.1,0.9,0,1.8,0,2.7
		c0.1,0.9,0.2,1.9,0.4,2.8c0.1,0.5,0.2,0.9,0.3,1.4c0.1,0.4,0.3,1,0.4,1.4c0.6,1.8,1.3,3.6,2.2,5.2c0.5,0.8,0.9,1.6,1.5,2.3
		c0.5,0.7,1.1,1.3,1.8,1.8c0.6,0.5,1.3,0.9,2,1c0.2,0,0.3,0,0.4,0.1c0.2,0,0.4,0,0.7,0c0.2,0,0.7-0.1,0.9-0.3
		c0.6-0.3,1.2-0.9,1.6-1.5c0.4-0.7,0.8-1.4,1-2.1c0.5-1.4,0.6-2.9,0.7-4.1c0-1.3-0.1-2.4-0.2-3.3c-0.2-0.9-0.3-1.6-0.4-2.1
		C271.3,153.9,271.2,153.6,271.2,153.6z"/>
</g>
<path class="st6" d="M206.7,286.7c-9.5-2-21-15-19-21.3s8.5-17.3,13.5-16.5s7.9,5.5,6.7,9.3c-1.2,3.7-8.5,9.2-7.7,11.6
	c0.8,2.4,9.8,6.9,10.3,3.4s-0.3-18,2.3-20s10.1,1.8,11.8,3.8c1.7,2,3,11-5.3,20.8S206.7,286.7,206.7,286.7z"/>
</svg>
